<svg xmlns="http://www.w3.org/2000/svg" xmlns:xlink="http://www.w3.org/1999/xlink" width="1024" zoomAndPan="magnify" viewBox="0 0 768 767.999994" height="1024" preserveAspectRatio="xMidYMid meet" version="1.0"><defs><g></g><clipPath id="75938a7122"><path d="M 439 256 L 533.539062 256 L 533.539062 392.21875 L 439 392.21875 Z M 439 256 " clip-rule="nonzero"></path></clipPath><clipPath id="bed43f7f83"><path d="M 382.039062 227.21875 L 476 227.21875 L 476 363 L 382.039062 363 Z M 382.039062 227.21875 " clip-rule="nonzero"></path></clipPath><clipPath id="9ac990cbf9"><rect x="0" width="754" y="0" height="76"></rect></clipPath><clipPath id="caf8f403ac"><rect x="0" width="403" y="0" height="86"></rect></clipPath><clipPath id="9cda89609d"><rect x="0" width="236" y="0" height="86"></rect></clipPath></defs><g clip-path="url(#75938a7122)"><path fill="#000000" d="M 533.457031 391.578125 C 529.101562 384.628906 524.738281 377.683594 520.375 370.738281 L 513.824219 360.339844 L 507.25 349.941406 L 494.082031 329.160156 L 481.726562 309.691406 L 497.632812 286.316406 L 501.820312 280.171875 C 503.222656 278.125 504.613281 276.074219 506.023438 274.035156 L 514.484375 261.804688 L 517.90625 256.859375 L 472.785156 256.554688 L 471.835938 258.253906 C 470.445312 260.746094 469.085938 263.25 467.714844 265.75 L 466.6875 267.628906 L 465.675781 269.519531 L 463.640625 273.28125 L 459.621094 280.835938 L 457.570312 284.730469 C 456.789062 283.542969 456.007812 282.359375 455.222656 281.175781 L 452.824219 277.582031 L 450.402344 274.003906 L 447.980469 270.4375 L 445.523438 266.882812 C 443.878906 264.511719 442.210938 262.160156 440.515625 259.824219 C 440.464844 259.742188 440.394531 259.6875 440.300781 259.664062 C 440.207031 259.636719 440.121094 259.648438 440.035156 259.699219 C 439.953125 259.75 439.898438 259.820312 439.875 259.914062 C 439.847656 260.007812 439.859375 260.09375 439.910156 260.179688 C 441.140625 262.785156 442.402344 265.375 443.699219 267.953125 L 445.640625 271.8125 L 447.609375 275.660156 L 449.59375 279.496094 L 451.59375 283.320312 C 452.941406 285.863281 454.289062 288.40625 455.652344 290.941406 L 457.625 294.59375 L 459.972656 290.910156 C 461.503906 288.5 463 286.078125 464.515625 283.660156 L 469.011719 276.390625 L 471.246094 272.738281 L 472.359375 270.921875 L 473.464844 269.101562 C 474.582031 267.25 475.703125 265.402344 476.8125 263.546875 C 477.695312 263.546875 504.671875 263.445312 505.742188 263.425781 L 501.105469 270.789062 C 499.789062 272.890625 498.449219 274.972656 497.117188 277.066406 L 493.113281 283.332031 L 477.082031 308.386719 L 476.246094 309.691406 L 477.082031 310.902344 L 490.984375 331.203125 L 504.914062 351.484375 L 511.878906 361.621094 L 518.867188 371.742188 C 523.523438 378.5 528.195312 385.246094 532.882812 391.972656 C 532.933594 392.050781 533.007812 392.097656 533.101562 392.117188 C 533.191406 392.132812 533.277344 392.117188 533.355469 392.0625 C 533.4375 392.011719 533.484375 391.941406 533.503906 391.847656 C 533.523438 391.753906 533.507812 391.667969 533.457031 391.589844 Z M 533.457031 391.578125 " fill-opacity="1" fill-rule="nonzero"></path></g><g clip-path="url(#bed43f7f83)"><path fill="#000000" d="M 471.90625 351.339844 L 469.964844 347.476562 L 468 343.632812 L 466.011719 339.796875 L 464.011719 335.972656 C 462.664062 333.425781 461.320312 330.882812 459.953125 328.351562 L 457.980469 324.695312 L 455.636719 328.382812 C 454.101562 330.789062 452.605469 333.210938 451.09375 335.628906 L 446.589844 342.902344 L 444.359375 346.554688 L 443.242188 348.371094 L 442.140625 350.191406 C 441.023438 352.042969 439.914062 353.894531 438.8125 355.742188 C 437.925781 355.742188 410.953125 355.851562 409.875 355.871094 L 414.5 348.503906 C 415.820312 346.40625 417.160156 344.320312 418.492188 342.230469 L 422.496094 335.960938 L 438.527344 310.90625 L 439.359375 309.601562 L 438.527344 308.390625 L 424.625 288.132812 L 410.695312 267.894531 L 403.730469 257.78125 L 396.738281 247.675781 C 392.085938 240.9375 387.414062 234.210938 382.726562 227.496094 C 382.671875 227.421875 382.601562 227.375 382.511719 227.355469 C 382.421875 227.335938 382.335938 227.351562 382.257812 227.398438 C 382.179688 227.453125 382.128906 227.523438 382.109375 227.617188 C 382.085938 227.707031 382.101562 227.792969 382.148438 227.875 C 386.511719 234.8125 390.871094 241.746094 395.230469 248.675781 L 401.78125 259.0625 L 408.355469 269.4375 L 421.523438 290.183594 L 433.878906 309.605469 L 417.984375 332.980469 L 413.792969 339.125 C 412.394531 341.167969 411.003906 343.21875 409.589844 345.261719 L 401.132812 357.492188 L 397.710938 362.4375 L 442.832031 362.742188 L 443.785156 361.023438 C 445.175781 358.535156 446.539062 356.027344 447.90625 353.527344 L 448.933594 351.648438 L 449.953125 349.769531 L 451.984375 346.003906 L 455.988281 338.460938 L 458.035156 334.566406 L 460.382812 338.117188 L 462.78125 341.707031 L 465.203125 345.289062 L 467.625 348.859375 L 470.082031 352.414062 C 471.726562 354.78125 473.394531 357.132812 475.089844 359.46875 C 475.144531 359.539062 475.214844 359.582031 475.300781 359.601562 C 475.386719 359.617188 475.46875 359.605469 475.546875 359.558594 C 475.621094 359.515625 475.671875 359.449219 475.699219 359.363281 C 475.726562 359.28125 475.71875 359.195312 475.683594 359.117188 C 474.460938 356.515625 473.203125 353.925781 471.90625 351.339844 Z M 471.90625 351.339844 " fill-opacity="1" fill-rule="nonzero"></path></g><g transform="matrix(1, 0, 0, 1, 6, 354)"><g clip-path="url(#9ac990cbf9)"><g fill="#000000" fill-opacity="1"><g transform="translate(1.923404, 57.466817)"><g><path d="M 8.3125 -37.5625 L 8.3125 -3.65625 L 22.75 -3.65625 L 22.75 0 L 4.546875 0 L 4.546875 -37.5625 Z M 8.3125 -37.5625 "></path></g></g></g><g fill="#000000" fill-opacity="1"><g transform="translate(28.706514, 57.466817)"><g><path d="M 32.171875 0 L 26.421875 -12.34375 L 9.9375 -12.34375 L 4.1875 0 L 0.265625 0 L 17.78125 -37.5625 L 18.671875 -37.5625 L 36.09375 0 Z M 11.609375 -15.90625 L 24.75 -15.90625 L 18.203125 -29.96875 Z M 11.609375 -15.90625 "></path></g></g></g><g fill="#000000" fill-opacity="1"><g transform="translate(67.677995, 57.466817)"><g><path d="M 12.5 -37.5625 C 15.050781 -37.5625 17.1875 -37.164062 18.90625 -36.375 C 20.632812 -35.59375 21.914062 -34.519531 22.75 -33.15625 C 23.59375 -31.800781 24.015625 -30.21875 24.015625 -28.40625 C 24.015625 -26.726562 23.613281 -25.207031 22.8125 -23.84375 C 22.007812 -22.488281 20.804688 -21.375 19.203125 -20.5 C 24.460938 -18.726562 27.09375 -15.488281 27.09375 -10.78125 C 27.09375 -8.863281 26.613281 -7.082031 25.65625 -5.4375 C 24.695312 -3.800781 23.289062 -2.484375 21.4375 -1.484375 C 19.59375 -0.492188 17.398438 0 14.859375 0 L 4.546875 0 L 4.546875 -37.5625 Z M 10.828125 -21.8125 C 13.753906 -21.8125 16.03125 -22.34375 17.65625 -23.40625 C 19.28125 -24.46875 20.09375 -26.132812 20.09375 -28.40625 C 20.09375 -30.082031 19.488281 -31.414062 18.28125 -32.40625 C 17.082031 -33.40625 15.398438 -33.90625 13.234375 -33.90625 L 8.3125 -33.90625 L 8.3125 -21.8125 Z M 14.125 -3.65625 C 16.144531 -3.65625 17.832031 -3.976562 19.1875 -4.625 C 20.550781 -5.269531 21.554688 -6.132812 22.203125 -7.21875 C 22.847656 -8.300781 23.171875 -9.46875 23.171875 -10.71875 C 23.171875 -12.289062 22.742188 -13.632812 21.890625 -14.75 C 21.035156 -15.863281 19.785156 -16.707031 18.140625 -17.28125 C 16.503906 -17.863281 14.535156 -18.15625 12.234375 -18.15625 L 8.3125 -18.15625 L 8.3125 -3.65625 Z M 14.125 -3.65625 "></path></g></g></g><g fill="#000000" fill-opacity="1"><g transform="translate(100.215261, 57.466817)"><g></g></g></g><g fill="#000000" fill-opacity="1"><g transform="translate(117.3209, 57.466817)"><g><path d="M 45.203125 0 L 41.53125 0 L 38.078125 -25.53125 L 37.875 -26.890625 L 37.25 -25.578125 L 24.59375 0 L 23.640625 0 L 10.828125 -25.640625 L 10.15625 -27.046875 L 9.9375 -25.46875 L 6.546875 0 L 2.875 0 L 8.21875 -37.5625 L 8.84375 -37.5625 L 23.546875 -7.953125 L 24.109375 -6.75 L 24.75 -8 L 39.234375 -37.5625 L 39.859375 -37.5625 Z M 45.203125 0 "></path></g></g></g><g fill="#000000" fill-opacity="1"><g transform="translate(168.00996, 57.466817)"><g><path d="M 32.171875 0 L 26.421875 -12.34375 L 9.9375 -12.34375 L 4.1875 0 L 0.265625 0 L 17.78125 -37.5625 L 18.671875 -37.5625 L 36.09375 0 Z M 11.609375 -15.90625 L 24.75 -15.90625 L 18.203125 -29.96875 Z M 11.609375 -15.90625 "></path></g></g></g><g fill="#000000" fill-opacity="1"><g transform="translate(206.981441, 57.466817)"><g><path d="M 30.234375 -37.5625 L 34 -37.5625 L 34 0 L 33.171875 0 L 8.3125 -28.40625 L 8.3125 0 L 4.546875 0 L 4.546875 -37.5625 L 5.328125 -37.5625 L 30.234375 -8.78125 Z M 30.234375 -37.5625 "></path></g></g></g><g fill="#000000" fill-opacity="1"><g transform="translate(248.097652, 57.466817)"><g><path d="M 32.171875 0 L 26.421875 -12.34375 L 9.9375 -12.34375 L 4.1875 0 L 0.265625 0 L 17.78125 -37.5625 L 18.671875 -37.5625 L 36.09375 0 Z M 11.609375 -15.90625 L 24.75 -15.90625 L 18.203125 -29.96875 Z M 11.609375 -15.90625 "></path></g></g></g><g fill="#000000" fill-opacity="1"><g transform="translate(287.069132, 57.466817)"><g><path d="M 43.046875 -18.046875 L 43.046875 -17.9375 C 43.046875 -14.03125 42.253906 -10.664062 40.671875 -7.84375 C 39.085938 -5.019531 36.875 -2.859375 34.03125 -1.359375 C 31.1875 0.140625 27.898438 0.890625 24.171875 0.890625 C 19.984375 0.890625 16.273438 -0.015625 13.046875 -1.828125 C 9.828125 -3.640625 7.34375 -6.046875 5.59375 -9.046875 C 3.851562 -12.046875 2.984375 -15.289062 2.984375 -18.78125 C 2.984375 -22.332031 3.851562 -25.609375 5.59375 -28.609375 C 7.34375 -31.609375 9.773438 -34.003906 12.890625 -35.796875 C 16.015625 -37.597656 19.582031 -38.5 23.59375 -38.5 C 26.976562 -38.5 30.046875 -37.894531 32.796875 -36.6875 C 35.554688 -35.488281 38.222656 -33.671875 40.796875 -31.234375 L 37.921875 -28.515625 C 35.828125 -30.566406 33.539062 -32.132812 31.0625 -33.21875 C 28.59375 -34.300781 26.140625 -34.84375 23.703125 -34.84375 C 20.554688 -34.84375 17.703125 -34.144531 15.140625 -32.75 C 12.578125 -31.351562 10.5625 -29.429688 9.09375 -26.984375 C 7.632812 -24.546875 6.90625 -21.847656 6.90625 -18.890625 C 6.90625 -16.023438 7.65625 -13.351562 9.15625 -10.875 C 10.65625 -8.40625 12.726562 -6.4375 15.375 -4.96875 C 18.03125 -3.5 20.992188 -2.765625 24.265625 -2.765625 C 26.671875 -2.765625 28.921875 -3.21875 31.015625 -4.125 C 33.109375 -5.039062 34.84375 -6.367188 36.21875 -8.109375 C 37.601562 -9.847656 38.46875 -11.941406 38.8125 -14.390625 L 26.84375 -14.390625 L 26.84375 -18.046875 Z M 43.046875 -18.046875 "></path></g></g></g><g fill="#000000" fill-opacity="1"><g transform="translate(335.299594, 57.466817)"><g><path d="M 4.546875 -37.5625 L 26 -37.5625 L 26 -33.953125 L 8.3125 -33.953125 L 8.3125 -22.078125 L 26 -22.078125 L 26 -18.515625 L 8.3125 -18.515625 L 8.3125 -3.65625 L 26 -3.65625 L 26 0 L 4.546875 0 Z M 4.546875 -37.5625 "></path></g></g></g><g fill="#000000" fill-opacity="1"><g transform="translate(365.901375, 57.466817)"><g><path d="M 45.203125 0 L 41.53125 0 L 38.078125 -25.53125 L 37.875 -26.890625 L 37.25 -25.578125 L 24.59375 0 L 23.640625 0 L 10.828125 -25.640625 L 10.15625 -27.046875 L 9.9375 -25.46875 L 6.546875 0 L 2.875 0 L 8.21875 -37.5625 L 8.84375 -37.5625 L 23.546875 -7.953125 L 24.109375 -6.75 L 24.75 -8 L 39.234375 -37.5625 L 39.859375 -37.5625 Z M 45.203125 0 "></path></g></g></g><g fill="#000000" fill-opacity="1"><g transform="translate(416.590411, 57.466817)"><g><path d="M 4.546875 -37.5625 L 26 -37.5625 L 26 -33.953125 L 8.3125 -33.953125 L 8.3125 -22.078125 L 26 -22.078125 L 26 -18.515625 L 8.3125 -18.515625 L 8.3125 -3.65625 L 26 -3.65625 L 26 0 L 4.546875 0 Z M 4.546875 -37.5625 "></path></g></g></g><g fill="#000000" fill-opacity="1"><g transform="translate(447.19224, 57.466817)"><g><path d="M 30.234375 -37.5625 L 34 -37.5625 L 34 0 L 33.171875 0 L 8.3125 -28.40625 L 8.3125 0 L 4.546875 0 L 4.546875 -37.5625 L 5.328125 -37.5625 L 30.234375 -8.78125 Z M 30.234375 -37.5625 "></path></g></g></g><g fill="#000000" fill-opacity="1"><g transform="translate(488.308427, 57.466817)"><g><path d="M 9.3125 -33.90625 L 0.84375 -33.90625 L 0.84375 -37.5625 L 21.453125 -37.5625 L 21.453125 -33.90625 L 13.078125 -33.90625 L 13.078125 0 L 9.3125 0 Z M 9.3125 -33.90625 "></path></g></g></g><g fill="#000000" fill-opacity="1"><g transform="translate(513.208353, 57.466817)"><g></g></g></g><g fill="#000000" fill-opacity="1"><g transform="translate(530.313967, 57.466817)"><g><path d="M 12.65625 0.9375 C 10.144531 0.9375 7.984375 0.273438 6.171875 -1.046875 C 4.359375 -2.367188 2.738281 -4.359375 1.3125 -7.015625 L 4.5 -8.953125 C 5.613281 -6.890625 6.832031 -5.332031 8.15625 -4.28125 C 9.488281 -3.238281 10.882812 -2.71875 12.34375 -2.71875 C 13.632812 -2.71875 14.8125 -3.003906 15.875 -3.578125 C 16.9375 -4.160156 17.769531 -4.9375 18.375 -5.90625 C 18.988281 -6.882812 19.296875 -7.953125 19.296875 -9.109375 C 19.296875 -10.253906 18.972656 -11.320312 18.328125 -12.3125 C 17.691406 -13.3125 16.757812 -14.34375 15.53125 -15.40625 C 14.3125 -16.46875 12.1875 -18.21875 9.15625 -20.65625 C 7.789062 -21.738281 6.734375 -22.695312 5.984375 -23.53125 C 5.234375 -24.375 4.664062 -25.273438 4.28125 -26.234375 C 3.90625 -27.191406 3.71875 -28.351562 3.71875 -29.71875 C 3.71875 -31.382812 4.117188 -32.890625 4.921875 -34.234375 C 5.722656 -35.578125 6.820312 -36.625 8.21875 -37.375 C 9.613281 -38.125 11.144531 -38.5 12.8125 -38.5 C 14.90625 -38.5 16.707031 -37.96875 18.21875 -36.90625 C 19.738281 -35.84375 21.21875 -34.332031 22.65625 -32.375 L 19.625 -30.03125 C 18.8125 -31.070312 18.09375 -31.90625 17.46875 -32.53125 C 16.84375 -33.164062 16.132812 -33.671875 15.34375 -34.046875 C 14.5625 -34.429688 13.6875 -34.625 12.71875 -34.625 C 11.664062 -34.625 10.753906 -34.40625 9.984375 -33.96875 C 9.222656 -33.539062 8.640625 -32.957031 8.234375 -32.21875 C 7.835938 -31.488281 7.640625 -30.707031 7.640625 -29.875 C 7.640625 -28.6875 7.988281 -27.578125 8.6875 -26.546875 C 9.382812 -25.515625 10.394531 -24.515625 11.71875 -23.546875 C 14.507812 -21.515625 16.660156 -19.835938 18.171875 -18.515625 C 19.691406 -17.191406 20.914062 -15.757812 21.84375 -14.21875 C 22.769531 -12.6875 23.234375 -11 23.234375 -9.15625 C 23.234375 -7.414062 22.769531 -5.769531 21.84375 -4.21875 C 20.914062 -2.664062 19.648438 -1.414062 18.046875 -0.46875 C 16.441406 0.46875 14.644531 0.9375 12.65625 0.9375 Z M 12.65625 0.9375 "></path></g></g></g><g fill="#000000" fill-opacity="1"><g transform="translate(558.404851, 57.466817)"><g><path d="M 12.875 -17.9375 L 0.78125 -37.5625 L 5.125 -37.5625 L 14.75 -22.078125 L 24.21875 -37.5625 L 28.5625 -37.5625 L 16.640625 -17.9375 L 16.640625 0 L 12.875 0 Z M 12.875 -17.9375 "></path></g></g></g><g fill="#000000" fill-opacity="1"><g transform="translate(590.366703, 57.466817)"><g><path d="M 12.65625 0.9375 C 10.144531 0.9375 7.984375 0.273438 6.171875 -1.046875 C 4.359375 -2.367188 2.738281 -4.359375 1.3125 -7.015625 L 4.5 -8.953125 C 5.613281 -6.890625 6.832031 -5.332031 8.15625 -4.28125 C 9.488281 -3.238281 10.882812 -2.71875 12.34375 -2.71875 C 13.632812 -2.71875 14.8125 -3.003906 15.875 -3.578125 C 16.9375 -4.160156 17.769531 -4.9375 18.375 -5.90625 C 18.988281 -6.882812 19.296875 -7.953125 19.296875 -9.109375 C 19.296875 -10.253906 18.972656 -11.320312 18.328125 -12.3125 C 17.691406 -13.3125 16.757812 -14.34375 15.53125 -15.40625 C 14.3125 -16.46875 12.1875 -18.21875 9.15625 -20.65625 C 7.789062 -21.738281 6.734375 -22.695312 5.984375 -23.53125 C 5.234375 -24.375 4.664062 -25.273438 4.28125 -26.234375 C 3.90625 -27.191406 3.71875 -28.351562 3.71875 -29.71875 C 3.71875 -31.382812 4.117188 -32.890625 4.921875 -34.234375 C 5.722656 -35.578125 6.820312 -36.625 8.21875 -37.375 C 9.613281 -38.125 11.144531 -38.5 12.8125 -38.5 C 14.90625 -38.5 16.707031 -37.96875 18.21875 -36.90625 C 19.738281 -35.84375 21.21875 -34.332031 22.65625 -32.375 L 19.625 -30.03125 C 18.8125 -31.070312 18.09375 -31.90625 17.46875 -32.53125 C 16.84375 -33.164062 16.132812 -33.671875 15.34375 -34.046875 C 14.5625 -34.429688 13.6875 -34.625 12.71875 -34.625 C 11.664062 -34.625 10.753906 -34.40625 9.984375 -33.96875 C 9.222656 -33.539062 8.640625 -32.957031 8.234375 -32.21875 C 7.835938 -31.488281 7.640625 -30.707031 7.640625 -29.875 C 7.640625 -28.6875 7.988281 -27.578125 8.6875 -26.546875 C 9.382812 -25.515625 10.394531 -24.515625 11.71875 -23.546875 C 14.507812 -21.515625 16.660156 -19.835938 18.171875 -18.515625 C 19.691406 -17.191406 20.914062 -15.757812 21.84375 -14.21875 C 22.769531 -12.6875 23.234375 -11 23.234375 -9.15625 C 23.234375 -7.414062 22.769531 -5.769531 21.84375 -4.21875 C 20.914062 -2.664062 19.648438 -1.414062 18.046875 -0.46875 C 16.441406 0.46875 14.644531 0.9375 12.65625 0.9375 Z M 12.65625 0.9375 "></path></g></g></g><g fill="#000000" fill-opacity="1"><g transform="translate(618.457587, 57.466817)"><g><path d="M 9.3125 -33.90625 L 0.84375 -33.90625 L 0.84375 -37.5625 L 21.453125 -37.5625 L 21.453125 -33.90625 L 13.078125 -33.90625 L 13.078125 0 L 9.3125 0 Z M 9.3125 -33.90625 "></path></g></g></g><g fill="#000000" fill-opacity="1"><g transform="translate(643.357464, 57.466817)"><g><path d="M 4.546875 -37.5625 L 26 -37.5625 L 26 -33.953125 L 8.3125 -33.953125 L 8.3125 -22.078125 L 26 -22.078125 L 26 -18.515625 L 8.3125 -18.515625 L 8.3125 -3.65625 L 26 -3.65625 L 26 0 L 4.546875 0 Z M 4.546875 -37.5625 "></path></g></g></g><g fill="#000000" fill-opacity="1"><g transform="translate(673.959293, 57.466817)"><g><path d="M 45.203125 0 L 41.53125 0 L 38.078125 -25.53125 L 37.875 -26.890625 L 37.25 -25.578125 L 24.59375 0 L 23.640625 0 L 10.828125 -25.640625 L 10.15625 -27.046875 L 9.9375 -25.46875 L 6.546875 0 L 2.875 0 L 8.21875 -37.5625 L 8.84375 -37.5625 L 23.546875 -7.953125 L 24.109375 -6.75 L 24.75 -8 L 39.234375 -37.5625 L 39.859375 -37.5625 Z M 45.203125 0 "></path></g></g></g><g fill="#000000" fill-opacity="1"><g transform="translate(724.648303, 57.466817)"><g><path d="M 12.65625 0.9375 C 10.144531 0.9375 7.984375 0.273438 6.171875 -1.046875 C 4.359375 -2.367188 2.738281 -4.359375 1.3125 -7.015625 L 4.5 -8.953125 C 5.613281 -6.890625 6.832031 -5.332031 8.15625 -4.28125 C 9.488281 -3.238281 10.882812 -2.71875 12.34375 -2.71875 C 13.632812 -2.71875 14.8125 -3.003906 15.875 -3.578125 C 16.9375 -4.160156 17.769531 -4.9375 18.375 -5.90625 C 18.988281 -6.882812 19.296875 -7.953125 19.296875 -9.109375 C 19.296875 -10.253906 18.972656 -11.320312 18.328125 -12.3125 C 17.691406 -13.3125 16.757812 -14.34375 15.53125 -15.40625 C 14.3125 -16.46875 12.1875 -18.21875 9.15625 -20.65625 C 7.789062 -21.738281 6.734375 -22.695312 5.984375 -23.53125 C 5.234375 -24.375 4.664062 -25.273438 4.28125 -26.234375 C 3.90625 -27.191406 3.71875 -28.351562 3.71875 -29.71875 C 3.71875 -31.382812 4.117188 -32.890625 4.921875 -34.234375 C 5.722656 -35.578125 6.820312 -36.625 8.21875 -37.375 C 9.613281 -38.125 11.144531 -38.5 12.8125 -38.5 C 14.90625 -38.5 16.707031 -37.96875 18.21875 -36.90625 C 19.738281 -35.84375 21.21875 -34.332031 22.65625 -32.375 L 19.625 -30.03125 C 18.8125 -31.070312 18.09375 -31.90625 17.46875 -32.53125 C 16.84375 -33.164062 16.132812 -33.671875 15.34375 -34.046875 C 14.5625 -34.429688 13.6875 -34.625 12.71875 -34.625 C 11.664062 -34.625 10.753906 -34.40625 9.984375 -33.96875 C 9.222656 -33.539062 8.640625 -32.957031 8.234375 -32.21875 C 7.835938 -31.488281 7.640625 -30.707031 7.640625 -29.875 C 7.640625 -28.6875 7.988281 -27.578125 8.6875 -26.546875 C 9.382812 -25.515625 10.394531 -24.515625 11.71875 -23.546875 C 14.507812 -21.515625 16.660156 -19.835938 18.171875 -18.515625 C 19.691406 -17.191406 20.914062 -15.757812 21.84375 -14.21875 C 22.769531 -12.6875 23.234375 -11 23.234375 -9.15625 C 23.234375 -7.414062 22.769531 -5.769531 21.84375 -4.21875 C 20.914062 -2.664062 19.648438 -1.414062 18.046875 -0.46875 C 16.441406 0.46875 14.644531 0.9375 12.65625 0.9375 Z M 12.65625 0.9375 "></path></g></g></g></g></g><g transform="matrix(1, 0, 0, 1, 25, 265)"><g clip-path="url(#caf8f403ac)"><g fill="#000000" fill-opacity="1"><g transform="translate(2.80853, 64.878144)"><g><path d="M 14.25 1.0625 C 11.425781 1.0625 8.992188 0.316406 6.953125 -1.171875 C 4.910156 -2.671875 3.082031 -4.910156 1.46875 -7.890625 L 5.0625 -10.0625 C 6.320312 -7.75 7.695312 -6.003906 9.1875 -4.828125 C 10.675781 -3.648438 12.242188 -3.0625 13.890625 -3.0625 C 15.347656 -3.0625 16.675781 -3.382812 17.875 -4.03125 C 19.070312 -4.675781 20.015625 -5.546875 20.703125 -6.640625 C 21.390625 -7.742188 21.734375 -8.945312 21.734375 -10.25 C 21.734375 -11.539062 21.367188 -12.742188 20.640625 -13.859375 C 19.910156 -14.984375 18.859375 -16.144531 17.484375 -17.34375 C 16.109375 -18.539062 13.71875 -20.515625 10.3125 -23.265625 C 8.78125 -24.484375 7.59375 -25.5625 6.75 -26.5 C 5.90625 -27.445312 5.265625 -28.457031 4.828125 -29.53125 C 4.398438 -30.613281 4.1875 -31.921875 4.1875 -33.453125 C 4.1875 -35.335938 4.632812 -37.035156 5.53125 -38.546875 C 6.4375 -40.054688 7.671875 -41.234375 9.234375 -42.078125 C 10.804688 -42.921875 12.535156 -43.34375 14.421875 -43.34375 C 16.785156 -43.34375 18.816406 -42.742188 20.515625 -41.546875 C 22.222656 -40.347656 23.882812 -38.648438 25.5 -36.453125 L 22.078125 -33.796875 C 21.179688 -34.972656 20.378906 -35.914062 19.671875 -36.625 C 18.960938 -37.332031 18.164062 -37.898438 17.28125 -38.328125 C 16.394531 -38.765625 15.40625 -38.984375 14.3125 -38.984375 C 13.132812 -38.984375 12.113281 -38.738281 11.25 -38.25 C 10.382812 -37.757812 9.722656 -37.101562 9.265625 -36.28125 C 8.816406 -35.457031 8.59375 -34.570312 8.59375 -33.625 C 8.59375 -32.289062 8.984375 -31.046875 9.765625 -29.890625 C 10.554688 -28.734375 11.695312 -27.601562 13.1875 -26.5 C 16.332031 -24.21875 18.757812 -22.332031 20.46875 -20.84375 C 22.175781 -19.351562 23.546875 -17.742188 24.578125 -16.015625 C 25.617188 -14.285156 26.140625 -12.382812 26.140625 -10.3125 C 26.140625 -8.34375 25.617188 -6.484375 24.578125 -4.734375 C 23.546875 -2.992188 22.125 -1.59375 20.3125 -0.53125 C 18.507812 0.53125 16.488281 1.0625 14.25 1.0625 Z M 14.25 1.0625 "></path></g></g></g><g fill="#000000" fill-opacity="1"><g transform="translate(78.618605, 64.878144)"><g><path d="M 25.625 1.0625 C 21.375 1.0625 17.550781 0.0625 14.15625 -1.9375 C 10.757812 -3.945312 8.097656 -6.640625 6.171875 -10.015625 C 4.253906 -13.390625 3.296875 -17.039062 3.296875 -20.96875 C 3.296875 -25.09375 4.273438 -28.859375 6.234375 -32.265625 C 8.203125 -35.679688 10.863281 -38.378906 14.21875 -40.359375 C 17.570312 -42.347656 21.253906 -43.34375 25.265625 -43.34375 C 29.460938 -43.34375 33.289062 -42.367188 36.75 -40.421875 C 40.207031 -38.484375 42.925781 -35.816406 44.90625 -32.421875 C 46.882812 -29.023438 47.875 -25.265625 47.875 -21.140625 C 47.875 -17.054688 46.890625 -13.316406 44.921875 -9.921875 C 42.960938 -6.523438 40.285156 -3.84375 36.890625 -1.875 C 33.492188 0.0820312 29.738281 1.0625 25.625 1.0625 Z M 25.5 -3.0625 C 28.757812 -3.0625 31.757812 -3.835938 34.5 -5.390625 C 37.25 -6.941406 39.429688 -9.097656 41.046875 -11.859375 C 42.660156 -14.628906 43.46875 -17.742188 43.46875 -21.203125 C 43.46875 -24.660156 42.628906 -27.757812 40.953125 -30.5 C 39.285156 -33.25 37.078125 -35.390625 34.328125 -36.921875 C 31.578125 -38.453125 28.632812 -39.21875 25.5 -39.21875 C 22.394531 -39.21875 19.476562 -38.441406 16.75 -36.890625 C 14.019531 -35.335938 11.832031 -33.164062 10.1875 -30.375 C 8.539062 -27.59375 7.71875 -24.457031 7.71875 -20.96875 C 7.71875 -17.59375 8.53125 -14.539062 10.15625 -11.8125 C 11.789062 -9.082031 13.960938 -6.941406 16.671875 -5.390625 C 19.378906 -3.835938 22.320312 -3.0625 25.5 -3.0625 Z M 25.5 -3.0625 "></path></g></g></g><g fill="#000000" fill-opacity="1"><g transform="translate(176.920109, 64.878144)"><g><path d="M 9.359375 -42.28125 L 9.359375 -4.125 L 25.625 -4.125 L 25.625 0 L 5.125 0 L 5.125 -42.28125 Z M 9.359375 -42.28125 "></path></g></g></g><g fill="#000000" fill-opacity="1"><g transform="translate(251.258226, 64.878144)"><g><path d="M 1.9375 -42.28125 L 6.53125 -42.28125 L 20.546875 -9.59375 L 34.796875 -42.28125 L 39.390625 -42.28125 L 21.03125 0 L 20.078125 0 Z M 1.9375 -42.28125 "></path></g></g></g><g fill="#000000" fill-opacity="1"><g transform="translate(339.727099, 64.878144)"><g><path d="M 5.125 -42.28125 L 9.359375 -42.28125 L 9.359375 0 L 5.125 0 Z M 5.125 -42.28125 "></path></g></g></g></g></g><g transform="matrix(1, 0, 0, 1, 532, 265)"><g clip-path="url(#9cda89609d)"><g fill="#000000" fill-opacity="1"><g transform="translate(2.487406, 64.878144)"><g><path d="M 9.359375 -42.28125 L 9.359375 -4.125 L 25.625 -4.125 L 25.625 0 L 5.125 0 L 5.125 -42.28125 Z M 9.359375 -42.28125 "></path></g></g></g><g fill="#000000" fill-opacity="1"><g transform="translate(76.825524, 64.878144)"><g><path d="M 50.875 0 L 46.765625 0 L 42.875 -28.734375 L 42.640625 -30.265625 L 41.9375 -28.796875 L 27.671875 0 L 26.625 0 L 12.1875 -28.859375 L 11.421875 -30.453125 L 11.1875 -28.6875 L 7.359375 0 L 3.234375 0 L 9.25 -42.28125 L 9.953125 -42.28125 L 26.5 -8.953125 L 27.15625 -7.59375 L 27.859375 -9.015625 L 44.171875 -42.28125 L 44.875 -42.28125 Z M 50.875 0 "></path></g></g></g><g fill="#000000" fill-opacity="1"><g transform="translate(178.070947, 64.878144)"><g><path d="M 14.25 1.0625 C 11.425781 1.0625 8.992188 0.316406 6.953125 -1.171875 C 4.910156 -2.671875 3.082031 -4.910156 1.46875 -7.890625 L 5.0625 -10.0625 C 6.320312 -7.75 7.695312 -6.003906 9.1875 -4.828125 C 10.675781 -3.648438 12.242188 -3.0625 13.890625 -3.0625 C 15.347656 -3.0625 16.675781 -3.382812 17.875 -4.03125 C 19.070312 -4.675781 20.015625 -5.546875 20.703125 -6.640625 C 21.390625 -7.742188 21.734375 -8.945312 21.734375 -10.25 C 21.734375 -11.539062 21.367188 -12.742188 20.640625 -13.859375 C 19.910156 -14.984375 18.859375 -16.144531 17.484375 -17.34375 C 16.109375 -18.539062 13.71875 -20.515625 10.3125 -23.265625 C 8.78125 -24.484375 7.59375 -25.5625 6.75 -26.5 C 5.90625 -27.445312 5.265625 -28.457031 4.828125 -29.53125 C 4.398438 -30.613281 4.1875 -31.921875 4.1875 -33.453125 C 4.1875 -35.335938 4.632812 -37.035156 5.53125 -38.546875 C 6.4375 -40.054688 7.671875 -41.234375 9.234375 -42.078125 C 10.804688 -42.921875 12.535156 -43.34375 14.421875 -43.34375 C 16.785156 -43.34375 18.816406 -42.742188 20.515625 -41.546875 C 22.222656 -40.347656 23.882812 -38.648438 25.5 -36.453125 L 22.078125 -33.796875 C 21.179688 -34.972656 20.378906 -35.914062 19.671875 -36.625 C 18.960938 -37.332031 18.164062 -37.898438 17.28125 -38.328125 C 16.394531 -38.765625 15.40625 -38.984375 14.3125 -38.984375 C 13.132812 -38.984375 12.113281 -38.738281 11.25 -38.25 C 10.382812 -37.757812 9.722656 -37.101562 9.265625 -36.28125 C 8.816406 -35.457031 8.59375 -34.570312 8.59375 -33.625 C 8.59375 -32.289062 8.984375 -31.046875 9.765625 -29.890625 C 10.554688 -28.734375 11.695312 -27.601562 13.1875 -26.5 C 16.332031 -24.21875 18.757812 -22.332031 20.46875 -20.84375 C 22.175781 -19.351562 23.546875 -17.742188 24.578125 -16.015625 C 25.617188 -14.285156 26.140625 -12.382812 26.140625 -10.3125 C 26.140625 -8.34375 25.617188 -6.484375 24.578125 -4.734375 C 23.546875 -2.992188 22.125 -1.59375 20.3125 -0.53125 C 18.507812 0.53125 16.488281 1.0625 14.25 1.0625 Z M 14.25 1.0625 "></path></g></g></g></g></g></svg>