<svg xmlns="http://www.w3.org/2000/svg" xmlns:xlink="http://www.w3.org/1999/xlink" width="1024" zoomAndPan="magnify" viewBox="0 0 768 767.999994" height="1024" preserveAspectRatio="xMidYMid meet" version="1.0"><defs><clipPath id="b554855979"><path d="M 7.984375 7.984375 L 760.015625 7.984375 L 760.015625 760.015625 L 7.984375 760.015625 Z M 7.984375 7.984375 " clip-rule="nonzero"></path></clipPath><clipPath id="298b1a93f5"><path d="M 384 7.984375 C 176.332031 7.984375 7.984375 176.332031 7.984375 384 C 7.984375 591.667969 176.332031 760.015625 384 760.015625 C 591.667969 760.015625 760.015625 591.667969 760.015625 384 C 760.015625 176.332031 591.667969 7.984375 384 7.984375 Z M 384 7.984375 " clip-rule="nonzero"></path></clipPath><clipPath id="ff22e07a60"><path d="M 0.984375 0.984375 L 753.015625 0.984375 L 753.015625 753.015625 L 0.984375 753.015625 Z M 0.984375 0.984375 " clip-rule="nonzero"></path></clipPath><clipPath id="5afe4e0455"><path d="M 377 0.984375 C 169.332031 0.984375 0.984375 169.332031 0.984375 377 C 0.984375 584.667969 169.332031 753.015625 377 753.015625 C 584.667969 753.015625 753.015625 584.667969 753.015625 377 C 753.015625 169.332031 584.667969 0.984375 377 0.984375 Z M 377 0.984375 " clip-rule="nonzero"></path></clipPath><clipPath id="928ce6df0f"><rect x="0" width="754" y="0" height="754"></rect></clipPath><clipPath id="f9176e95dd"><path d="M 21.835938 21.835938 L 746.164062 21.835938 L 746.164062 746.164062 L 21.835938 746.164062 Z M 21.835938 21.835938 " clip-rule="nonzero"></path></clipPath><clipPath id="f46ac1c69f"><path d="M 384 21.835938 C 183.980469 21.835938 21.835938 183.980469 21.835938 384 C 21.835938 584.019531 183.980469 746.164062 384 746.164062 C 584.019531 746.164062 746.164062 584.019531 746.164062 384 C 746.164062 183.980469 584.019531 21.835938 384 21.835938 Z M 384 21.835938 " clip-rule="nonzero"></path></clipPath><clipPath id="877b06cb52"><path d="M 0.835938 0.835938 L 725.164062 0.835938 L 725.164062 725.164062 L 0.835938 725.164062 Z M 0.835938 0.835938 " clip-rule="nonzero"></path></clipPath><clipPath id="07a75f84f2"><path d="M 363 0.835938 C 162.980469 0.835938 0.835938 162.980469 0.835938 363 C 0.835938 563.019531 162.980469 725.164062 363 725.164062 C 563.019531 725.164062 725.164062 563.019531 725.164062 363 C 725.164062 162.980469 563.019531 0.835938 363 0.835938 Z M 363 0.835938 " clip-rule="nonzero"></path></clipPath><clipPath id="7987abdb71"><rect x="0" width="726" y="0" height="726"></rect></clipPath><clipPath id="e18d2a7d89"><path d="M 326 209 L 635.980469 209 L 635.980469 658.207031 L 326 658.207031 Z M 326 209 " clip-rule="nonzero"></path></clipPath></defs><g clip-path="url(#b554855979)"><g clip-path="url(#298b1a93f5)"><g transform="matrix(1, 0, 0, 1, 7, 7)"><g clip-path="url(#928ce6df0f)"><g clip-path="url(#ff22e07a60)"><g clip-path="url(#5afe4e0455)"><path fill="#545454" d="M 0.984375 0.984375 L 753.015625 0.984375 L 753.015625 753.015625 L 0.984375 753.015625 Z M 0.984375 0.984375 " fill-opacity="1" fill-rule="nonzero"></path></g></g></g></g></g></g><g clip-path="url(#f9176e95dd)"><g clip-path="url(#f46ac1c69f)"><g transform="matrix(1, 0, 0, 1, 21, 21)"><g clip-path="url(#7987abdb71)"><g clip-path="url(#877b06cb52)"><g clip-path="url(#07a75f84f2)"><path fill="#000000" d="M 0.835938 0.835938 L 725.164062 0.835938 L 725.164062 725.164062 L 0.835938 725.164062 Z M 0.835938 0.835938 " fill-opacity="1" fill-rule="nonzero"></path></g></g></g></g></g></g><g clip-path="url(#e18d2a7d89)"><path fill="#545454" d="M 635.863281 656.304688 C 621.453125 633.339844 607.027344 610.375 592.589844 587.40625 L 570.921875 553.039062 L 549.175781 518.660156 L 505.609375 449.953125 L 464.742188 385.59375 L 517.359375 308.324219 L 531.214844 288.007812 C 535.851562 281.246094 540.449219 274.464844 545.117188 267.722656 L 573.105469 227.285156 L 584.425781 210.9375 L 435.171875 209.9375 L 432.027344 215.554688 C 427.429688 223.789062 422.929688 232.074219 418.394531 240.335938 L 414.996094 246.546875 L 411.652344 252.789062 L 404.917969 265.230469 L 391.617188 290.203125 L 384.835938 303.085938 C 382.25 299.15625 379.664062 295.238281 377.074219 291.324219 L 369.140625 279.453125 L 361.125 267.625 L 353.113281 255.824219 L 344.988281 244.074219 C 339.546875 236.242188 334.023438 228.464844 328.417969 220.746094 C 328.34375 220.613281 328.242188 220.5 328.117188 220.40625 C 327.996094 220.3125 327.859375 220.246094 327.710938 220.207031 C 327.5625 220.167969 327.414062 220.160156 327.261719 220.183594 C 327.109375 220.203125 326.964844 220.253906 326.832031 220.328125 C 326.699219 220.40625 326.585938 220.507812 326.492188 220.628906 C 326.402344 220.753906 326.335938 220.886719 326.296875 221.035156 C 326.257812 221.1875 326.246094 221.335938 326.269531 221.488281 C 326.289062 221.640625 326.339844 221.785156 326.417969 221.917969 C 330.484375 230.53125 334.664062 239.09375 338.957031 247.609375 L 345.378906 260.371094 L 351.890625 273.09375 L 358.449219 285.773438 L 365.070312 298.417969 C 369.53125 306.820312 373.976562 315.234375 378.496094 323.609375 L 385.015625 335.691406 L 392.777344 323.507812 C 397.847656 315.546875 402.796875 307.542969 407.804688 299.546875 L 422.691406 275.507812 L 430.074219 263.4375 L 433.757812 257.425781 L 437.414062 251.417969 C 441.109375 245.296875 444.816406 239.1875 448.484375 233.054688 C 451.410156 233.054688 540.640625 232.714844 544.1875 232.644531 L 528.851562 256.996094 C 524.492188 263.9375 520.054688 270.820312 515.65625 277.742188 L 502.414062 298.457031 L 449.386719 381.289062 L 446.621094 385.59375 L 449.386719 389.601562 L 495.363281 456.714844 L 541.441406 523.757812 L 564.480469 557.265625 L 587.601562 590.734375 C 603 613.078125 618.453125 635.371094 633.960938 657.605469 C 634.042969 657.730469 634.148438 657.835938 634.273438 657.917969 C 634.398438 658 634.535156 658.054688 634.683594 658.085938 C 634.832031 658.113281 634.976562 658.113281 635.125 658.085938 C 635.273438 658.054688 635.410156 658 635.535156 657.914062 C 635.660156 657.832031 635.765625 657.730469 635.847656 657.605469 C 635.933594 657.480469 635.988281 657.34375 636.019531 657.199219 C 636.050781 657.050781 636.054688 656.902344 636.027344 656.757812 C 636 656.609375 635.945312 656.472656 635.863281 656.34375 Z M 635.863281 656.304688 " fill-opacity="1" fill-rule="nonzero"></path></g><path fill="#545454" d="M 432.257812 523.289062 L 425.835938 510.515625 L 419.335938 497.804688 L 412.761719 485.125 L 406.140625 472.484375 C 401.683594 464.066406 397.246094 455.652344 392.71875 447.289062 L 386.199219 435.199219 L 378.433594 447.390625 C 373.367188 455.34375 368.417969 463.355469 363.410156 471.351562 L 348.515625 495.390625 L 341.140625 507.460938 L 337.445312 513.472656 L 333.800781 519.484375 C 330.105469 525.605469 326.433594 531.726562 322.78125 537.84375 C 319.855469 537.84375 230.625 538.195312 227.066406 538.265625 L 242.363281 513.914062 C 246.730469 506.972656 251.167969 500.078125 255.566406 493.167969 L 268.808594 472.441406 L 321.839844 389.613281 L 324.59375 385.304688 L 321.839844 381.296875 L 275.859375 314.324219 L 229.78125 247.417969 L 206.742188 213.984375 L 183.601562 180.585938 C 168.21875 158.308594 152.769531 136.070312 137.253906 113.871094 C 137.171875 113.753906 137.070312 113.652344 136.945312 113.570312 C 136.824219 113.488281 136.691406 113.433594 136.546875 113.402344 C 136.402344 113.375 136.261719 113.371094 136.117188 113.398438 C 135.972656 113.421875 135.835938 113.476562 135.710938 113.550781 C 135.585938 113.632812 135.476562 113.734375 135.390625 113.859375 C 135.304688 113.984375 135.242188 114.117188 135.210938 114.265625 C 135.175781 114.410156 135.171875 114.558594 135.195312 114.707031 C 135.222656 114.859375 135.273438 114.996094 135.351562 115.125 C 149.777344 138.058594 164.199219 160.976562 178.625 183.882812 L 200.292969 218.230469 L 222.039062 252.527344 L 265.59375 321.105469 L 306.472656 385.3125 L 253.882812 462.585938 L 240.03125 482.898438 C 235.390625 489.652344 230.804688 496.441406 226.125 503.183594 L 198.136719 543.625 L 186.828125 559.972656 L 336.082031 560.972656 L 339.238281 555.304688 C 343.835938 547.070312 348.34375 538.785156 352.871094 530.519531 L 356.265625 524.3125 L 359.632812 518.089844 L 366.363281 505.648438 L 379.597656 480.707031 L 386.378906 467.835938 L 394.140625 479.574219 L 402.074219 491.445312 L 410.089844 503.285156 L 418.101562 515.085938 L 426.226562 526.835938 C 431.660156 534.660156 437.183594 542.433594 442.792969 550.15625 C 442.96875 550.390625 443.199219 550.539062 443.488281 550.597656 C 443.773438 550.65625 444.046875 550.609375 444.296875 550.457031 C 444.550781 550.308594 444.71875 550.09375 444.804688 549.8125 C 444.890625 549.53125 444.871094 549.257812 444.746094 548.992188 C 440.714844 540.398438 436.550781 531.832031 432.257812 523.289062 Z M 432.257812 523.289062 " fill-opacity="1" fill-rule="nonzero"></path></svg>