<svg xmlns="http://www.w3.org/2000/svg" xmlns:xlink="http://www.w3.org/1999/xlink" width="1024" zoomAndPan="magnify" viewBox="0 0 768 767.999994" height="1024" preserveAspectRatio="xMidYMid meet" version="1.0"><defs><g></g><clipPath id="8835ed3981"><path d="M 443 307 L 539.046875 307 L 539.046875 445.941406 L 443 445.941406 Z M 443 307 " clip-rule="nonzero"></path></clipPath><clipPath id="30d0777433"><path d="M 384.546875 278 L 481 278 L 481 416 L 384.546875 416 Z M 384.546875 278 " clip-rule="nonzero"></path></clipPath><clipPath id="cab8ebee5f"><rect x="0" width="411" y="0" height="87"></rect></clipPath><clipPath id="26cb641c1b"><rect x="0" width="230" y="0" height="87"></rect></clipPath></defs><g clip-path="url(#8835ed3981)"><path fill="#000000" d="M 538.960938 445.285156 C 534.519531 438.210938 530.070312 431.140625 525.621094 424.066406 L 518.941406 413.480469 L 512.238281 402.894531 L 498.808594 381.730469 L 486.207031 361.910156 L 502.429688 338.109375 L 506.699219 331.855469 C 508.128906 329.773438 509.546875 327.683594 510.988281 325.605469 L 519.613281 313.152344 L 523.105469 308.117188 L 477.089844 307.808594 L 476.121094 309.539062 C 474.703125 312.074219 473.316406 314.625 471.917969 317.171875 L 470.871094 319.085938 L 469.839844 321.007812 L 467.765625 324.839844 L 463.664062 332.53125 L 461.574219 336.496094 C 460.777344 335.289062 459.976562 334.082031 459.179688 332.875 L 456.734375 329.21875 L 454.261719 325.574219 L 451.792969 321.941406 L 449.289062 318.324219 C 447.609375 315.910156 445.90625 313.515625 444.179688 311.136719 C 444.128906 311.050781 444.058594 310.996094 443.960938 310.972656 C 443.867188 310.949219 443.777344 310.960938 443.691406 311.007812 C 443.605469 311.058594 443.550781 311.132812 443.527344 311.226562 C 443.5 311.324219 443.511719 311.414062 443.5625 311.5 C 444.816406 314.152344 446.105469 316.789062 447.429688 319.410156 L 449.410156 323.34375 L 451.414062 327.261719 L 453.4375 331.167969 L 455.480469 335.058594 C 456.855469 337.648438 458.226562 340.238281 459.617188 342.820312 L 461.628906 346.539062 L 464.023438 342.789062 C 465.585938 340.335938 467.109375 337.871094 468.652344 335.40625 L 473.242188 328.003906 L 475.519531 324.285156 L 476.65625 322.433594 L 477.78125 320.585938 C 478.921875 318.699219 480.066406 316.816406 481.195312 314.929688 C 482.097656 314.929688 509.605469 314.824219 510.699219 314.800781 L 505.972656 322.300781 C 504.628906 324.441406 503.261719 326.558594 501.902344 328.691406 L 497.820312 335.070312 L 481.472656 360.582031 L 480.621094 361.910156 L 481.472656 363.144531 L 495.648438 383.8125 L 509.851562 404.464844 L 516.957031 414.78125 L 524.082031 425.089844 C 528.832031 431.972656 533.59375 438.835938 538.375 445.6875 C 538.429688 445.765625 538.503906 445.816406 538.597656 445.832031 C 538.691406 445.851562 538.78125 445.835938 538.859375 445.78125 C 538.941406 445.730469 538.992188 445.65625 539.011719 445.5625 C 539.03125 445.464844 539.015625 445.378906 538.960938 445.296875 Z M 538.960938 445.285156 " fill-opacity="1" fill-rule="nonzero"></path></g><g clip-path="url(#30d0777433)"><path fill="#000000" d="M 476.191406 404.316406 L 474.210938 400.382812 L 472.207031 396.46875 L 470.183594 392.5625 L 468.140625 388.671875 C 466.765625 386.078125 465.398438 383.488281 464.003906 380.910156 L 461.992188 377.1875 L 459.597656 380.941406 C 458.035156 383.390625 456.511719 385.859375 454.96875 388.320312 L 450.375 395.726562 L 448.101562 399.445312 L 446.960938 401.292969 L 445.839844 403.144531 C 444.699219 405.03125 443.566406 406.917969 442.441406 408.800781 C 441.539062 408.800781 414.03125 408.910156 412.933594 408.929688 L 417.648438 401.429688 C 418.996094 399.292969 420.363281 397.167969 421.71875 395.039062 L 425.804688 388.65625 L 442.152344 363.148438 L 443 361.820312 L 442.152344 360.585938 L 427.976562 339.957031 L 413.769531 319.351562 L 406.667969 309.054688 L 399.535156 298.769531 C 394.792969 291.90625 390.027344 285.058594 385.246094 278.222656 C 385.191406 278.144531 385.121094 278.097656 385.027344 278.078125 C 384.9375 278.058594 384.851562 278.074219 384.769531 278.125 C 384.6875 278.175781 384.636719 278.25 384.617188 278.34375 C 384.59375 278.4375 384.609375 278.523438 384.660156 278.609375 C 389.105469 285.671875 393.554688 292.730469 398 299.785156 L 404.679688 310.363281 L 411.382812 320.925781 L 424.8125 342.046875 L 437.414062 361.824219 L 421.203125 385.621094 L 416.929688 391.878906 C 415.5 393.957031 414.085938 396.050781 412.644531 398.125 L 404.015625 410.582031 L 400.53125 415.617188 L 446.542969 415.925781 L 447.515625 414.179688 C 448.933594 411.640625 450.324219 409.089844 451.71875 406.546875 L 452.765625 404.632812 L 453.804688 402.71875 L 455.878906 398.886719 L 459.957031 391.203125 L 462.046875 387.238281 L 464.441406 390.855469 L 466.886719 394.511719 L 469.359375 398.15625 L 471.828125 401.792969 L 474.332031 405.410156 C 476.007812 407.820312 477.710938 410.214844 479.441406 412.59375 C 479.496094 412.664062 479.566406 412.710938 479.65625 412.726562 C 479.742188 412.746094 479.828125 412.730469 479.902344 412.6875 C 479.980469 412.640625 480.035156 412.574219 480.0625 412.488281 C 480.085938 412.402344 480.082031 412.316406 480.042969 412.234375 C 478.800781 409.585938 477.515625 406.949219 476.191406 404.316406 Z M 476.191406 404.316406 " fill-opacity="1" fill-rule="nonzero"></path></g><g transform="matrix(1, 0, 0, 1, 21, 317)"><g clip-path="url(#cab8ebee5f)"><g fill="#d9d9d9" fill-opacity="1"><g transform="translate(2.48852, 65.576707)"><g><path d="M 14.53125 1.078125 C 11.644531 1.078125 9.160156 0.316406 7.078125 -1.203125 C 5.003906 -2.722656 3.144531 -5.003906 1.5 -8.046875 L 5.15625 -10.265625 C 6.4375 -7.898438 7.835938 -6.117188 9.359375 -4.921875 C 10.878906 -3.722656 12.484375 -3.125 14.171875 -3.125 C 15.648438 -3.125 17 -3.453125 18.21875 -4.109375 C 19.4375 -4.773438 20.394531 -5.664062 21.09375 -6.78125 C 21.800781 -7.90625 22.15625 -9.128906 22.15625 -10.453125 C 22.15625 -11.765625 21.785156 -12.988281 21.046875 -14.125 C 20.304688 -15.269531 19.234375 -16.453125 17.828125 -17.671875 C 16.429688 -18.898438 13.988281 -20.914062 10.5 -23.71875 C 8.945312 -24.957031 7.738281 -26.054688 6.875 -27.015625 C 6.007812 -27.972656 5.359375 -29 4.921875 -30.09375 C 4.484375 -31.195312 4.265625 -32.53125 4.265625 -34.09375 C 4.265625 -36.019531 4.722656 -37.753906 5.640625 -39.296875 C 6.566406 -40.835938 7.828125 -42.035156 9.421875 -42.890625 C 11.023438 -43.753906 12.785156 -44.1875 14.703125 -44.1875 C 17.109375 -44.1875 19.179688 -43.570312 20.921875 -42.34375 C 22.660156 -41.125 24.351562 -39.394531 26 -37.15625 L 22.515625 -34.453125 C 21.585938 -35.660156 20.765625 -36.625 20.046875 -37.34375 C 19.328125 -38.0625 18.515625 -38.640625 17.609375 -39.078125 C 16.710938 -39.515625 15.707031 -39.734375 14.59375 -39.734375 C 13.382812 -39.734375 12.335938 -39.484375 11.453125 -38.984375 C 10.578125 -38.484375 9.910156 -37.8125 9.453125 -36.96875 C 8.992188 -36.132812 8.765625 -35.238281 8.765625 -34.28125 C 8.765625 -32.914062 9.164062 -31.640625 9.96875 -30.453125 C 10.769531 -29.273438 11.929688 -28.128906 13.453125 -27.015625 C 16.648438 -24.691406 19.117188 -22.769531 20.859375 -21.25 C 22.597656 -19.726562 24 -18.085938 25.0625 -16.328125 C 26.125 -14.566406 26.65625 -12.625 26.65625 -10.5 C 26.65625 -8.5 26.125 -6.609375 25.0625 -4.828125 C 24 -3.046875 22.546875 -1.613281 20.703125 -0.53125 C 18.867188 0.539062 16.8125 1.078125 14.53125 1.078125 Z M 14.53125 1.078125 "></path></g></g></g><g fill="#d9d9d9" fill-opacity="1"><g transform="translate(79.759695, 65.576707)"><g><path d="M 26.109375 1.078125 C 21.785156 1.078125 17.894531 0.0546875 14.4375 -1.984375 C 10.976562 -4.023438 8.265625 -6.765625 6.296875 -10.203125 C 4.335938 -13.648438 3.359375 -17.375 3.359375 -21.375 C 3.359375 -25.570312 4.359375 -29.410156 6.359375 -32.890625 C 8.359375 -36.378906 11.066406 -39.132812 14.484375 -41.15625 C 17.910156 -43.175781 21.664062 -44.1875 25.75 -44.1875 C 30.03125 -44.1875 33.929688 -43.191406 37.453125 -41.203125 C 40.984375 -39.222656 43.757812 -36.503906 45.78125 -33.046875 C 47.800781 -29.585938 48.8125 -25.753906 48.8125 -21.546875 C 48.8125 -17.390625 47.804688 -13.578125 45.796875 -10.109375 C 43.796875 -6.648438 41.066406 -3.921875 37.609375 -1.921875 C 34.148438 0.078125 30.316406 1.078125 26.109375 1.078125 Z M 26 -3.125 C 29.3125 -3.125 32.367188 -3.910156 35.171875 -5.484375 C 37.972656 -7.066406 40.191406 -9.269531 41.828125 -12.09375 C 43.472656 -14.914062 44.296875 -18.085938 44.296875 -21.609375 C 44.296875 -25.128906 43.445312 -28.289062 41.75 -31.09375 C 40.050781 -33.894531 37.800781 -36.078125 35 -37.640625 C 32.195312 -39.203125 29.195312 -39.984375 26 -39.984375 C 22.832031 -39.984375 19.859375 -39.191406 17.078125 -37.609375 C 14.296875 -36.023438 12.0625 -33.8125 10.375 -30.96875 C 8.695312 -28.132812 7.859375 -24.9375 7.859375 -21.375 C 7.859375 -17.925781 8.6875 -14.8125 10.34375 -12.03125 C 12.007812 -9.25 14.222656 -7.066406 16.984375 -5.484375 C 19.742188 -3.910156 22.75 -3.125 26 -3.125 Z M 26 -3.125 "></path></g></g></g><g fill="#d9d9d9" fill-opacity="1"><g transform="translate(179.955781, 65.576707)"><g><path d="M 9.546875 -43.109375 L 9.546875 -4.203125 L 26.109375 -4.203125 L 26.109375 0 L 5.21875 0 L 5.21875 -43.109375 Z M 9.546875 -43.109375 "></path></g></g></g><g fill="#d9d9d9" fill-opacity="1"><g transform="translate(255.72663, 65.576707)"><g><path d="M 1.984375 -43.109375 L 6.65625 -43.109375 L 20.953125 -9.78125 L 35.484375 -43.109375 L 40.15625 -43.109375 L 21.4375 0 L 20.46875 0 Z M 1.984375 -43.109375 "></path></g></g></g><g fill="#d9d9d9" fill-opacity="1"><g transform="translate(345.900578, 65.576707)"><g><path d="M 5.21875 -43.109375 L 9.546875 -43.109375 L 9.546875 0 L 5.21875 0 Z M 5.21875 -43.109375 "></path></g></g></g></g></g><g transform="matrix(1, 0, 0, 1, 538, 317)"><g clip-path="url(#26cb641c1b)"><g fill="#000000" fill-opacity="1"><g transform="translate(3.585742, 65.576707)"><g><path d="M 9.546875 -43.109375 L 9.546875 -4.203125 L 26.109375 -4.203125 L 26.109375 0 L 5.21875 0 L 5.21875 -43.109375 Z M 9.546875 -43.109375 "></path></g></g></g><g fill="#000000" fill-opacity="1"><g transform="translate(79.356591, 65.576707)"><g><path d="M 51.859375 0 L 47.671875 0 L 43.703125 -29.296875 L 43.46875 -30.859375 L 42.75 -29.359375 L 28.21875 0 L 27.140625 0 L 12.421875 -29.421875 L 11.640625 -31.03125 L 11.40625 -29.234375 L 7.5 0 L 3.296875 0 L 9.421875 -43.109375 L 10.140625 -43.109375 L 27.015625 -9.125 L 27.671875 -7.75 L 28.390625 -9.1875 L 45.015625 -43.109375 L 45.75 -43.109375 Z M 51.859375 0 "></path></g></g></g><g fill="#000000" fill-opacity="1"><g transform="translate(182.553335, 65.576707)"><g><path d="M 14.53125 1.078125 C 11.644531 1.078125 9.160156 0.316406 7.078125 -1.203125 C 5.003906 -2.722656 3.144531 -5.003906 1.5 -8.046875 L 5.15625 -10.265625 C 6.4375 -7.898438 7.835938 -6.117188 9.359375 -4.921875 C 10.878906 -3.722656 12.484375 -3.125 14.171875 -3.125 C 15.648438 -3.125 17 -3.453125 18.21875 -4.109375 C 19.4375 -4.773438 20.394531 -5.664062 21.09375 -6.78125 C 21.800781 -7.90625 22.15625 -9.128906 22.15625 -10.453125 C 22.15625 -11.765625 21.785156 -12.988281 21.046875 -14.125 C 20.304688 -15.269531 19.234375 -16.453125 17.828125 -17.671875 C 16.429688 -18.898438 13.988281 -20.914062 10.5 -23.71875 C 8.945312 -24.957031 7.738281 -26.054688 6.875 -27.015625 C 6.007812 -27.972656 5.359375 -29 4.921875 -30.09375 C 4.484375 -31.195312 4.265625 -32.53125 4.265625 -34.09375 C 4.265625 -36.019531 4.722656 -37.753906 5.640625 -39.296875 C 6.566406 -40.835938 7.828125 -42.035156 9.421875 -42.890625 C 11.023438 -43.753906 12.785156 -44.1875 14.703125 -44.1875 C 17.109375 -44.1875 19.179688 -43.570312 20.921875 -42.34375 C 22.660156 -41.125 24.351562 -39.394531 26 -37.15625 L 22.515625 -34.453125 C 21.585938 -35.660156 20.765625 -36.625 20.046875 -37.34375 C 19.328125 -38.0625 18.515625 -38.640625 17.609375 -39.078125 C 16.710938 -39.515625 15.707031 -39.734375 14.59375 -39.734375 C 13.382812 -39.734375 12.335938 -39.484375 11.453125 -38.984375 C 10.578125 -38.484375 9.910156 -37.8125 9.453125 -36.96875 C 8.992188 -36.132812 8.765625 -35.238281 8.765625 -34.28125 C 8.765625 -32.914062 9.164062 -31.640625 9.96875 -30.453125 C 10.769531 -29.273438 11.929688 -28.128906 13.453125 -27.015625 C 16.648438 -24.691406 19.117188 -22.769531 20.859375 -21.25 C 22.597656 -19.726562 24 -18.085938 25.0625 -16.328125 C 26.125 -14.566406 26.65625 -12.625 26.65625 -10.5 C 26.65625 -8.5 26.125 -6.609375 25.0625 -4.828125 C 24 -3.046875 22.546875 -1.613281 20.703125 -0.53125 C 18.867188 0.539062 16.8125 1.078125 14.53125 1.078125 Z M 14.53125 1.078125 "></path></g></g></g></g></g></svg>