<svg xmlns="http://www.w3.org/2000/svg" xmlns:xlink="http://www.w3.org/1999/xlink" width="1024" zoomAndPan="magnify" viewBox="0 0 768 767.999994" height="1024" preserveAspectRatio="xMidYMid meet" version="1.0"><defs><g></g><clipPath id="959bc992de"><path d="M 354 161 L 747.761719 161 L 747.761719 729.898438 L 354 729.898438 Z M 354 161 " clip-rule="nonzero"></path></clipPath><clipPath id="1077fd0e10"><path d="M 112.511719 38.398438 L 506 38.398438 L 506 607 L 112.511719 607 Z M 112.511719 38.398438 " clip-rule="nonzero"></path></clipPath><clipPath id="d6b953a696"><rect x="0" width="590" y="0" height="59"></rect></clipPath><clipPath id="40039f5a0f"><rect x="0" width="315" y="0" height="67"></rect></clipPath><clipPath id="f6524eb06c"><rect x="0" width="185" y="0" height="67"></rect></clipPath></defs><g clip-path="url(#959bc992de)"><path fill="#545454" d="M 747.210938 726.902344 C 728.949219 697.800781 710.671875 668.699219 692.375 639.601562 L 664.921875 596.050781 L 637.363281 552.488281 L 582.160156 465.425781 L 530.371094 383.871094 L 597.050781 285.957031 L 614.605469 260.214844 C 620.480469 251.644531 626.308594 243.054688 632.222656 234.511719 L 667.6875 183.269531 L 682.03125 162.550781 L 492.902344 161.285156 L 488.917969 168.402344 C 483.089844 178.839844 477.390625 189.335938 471.640625 199.808594 L 467.339844 207.675781 L 463.097656 215.585938 L 454.570312 231.351562 L 437.710938 262.992188 L 429.117188 279.316406 C 425.84375 274.339844 422.566406 269.375 419.28125 264.414062 L 409.230469 249.375 L 399.074219 234.382812 L 388.917969 219.429688 L 378.625 204.542969 C 371.730469 194.617188 364.730469 184.761719 357.632812 174.980469 C 357.53125 174.8125 357.40625 174.667969 357.25 174.550781 C 357.09375 174.433594 356.921875 174.351562 356.734375 174.300781 C 356.546875 174.25 356.355469 174.238281 356.160156 174.265625 C 355.96875 174.292969 355.789062 174.355469 355.621094 174.453125 C 355.453125 174.550781 355.308594 174.679688 355.191406 174.835938 C 355.074219 174.988281 354.988281 175.160156 354.941406 175.351562 C 354.890625 175.539062 354.878906 175.730469 354.90625 175.921875 C 354.933594 176.117188 354.996094 176.296875 355.09375 176.464844 C 360.246094 187.378906 365.542969 198.234375 370.984375 209.023438 L 379.121094 225.195312 L 387.371094 241.3125 L 395.683594 257.382812 L 404.074219 273.402344 C 409.722656 284.050781 415.359375 294.714844 421.085938 305.324219 L 429.347656 320.632812 L 439.183594 305.199219 C 445.605469 295.105469 451.878906 284.964844 458.222656 274.835938 L 477.085938 244.371094 L 486.441406 229.078125 L 491.113281 221.460938 L 495.746094 213.847656 C 500.429688 206.089844 505.125 198.347656 509.769531 190.578125 C 513.476562 190.578125 626.546875 190.148438 631.042969 190.058594 L 611.609375 220.914062 C 606.085938 229.710938 600.464844 238.433594 594.890625 247.203125 L 578.113281 273.453125 L 510.914062 378.414062 L 507.410156 383.871094 L 510.914062 388.949219 L 569.175781 473.992188 L 627.5625 558.949219 L 656.757812 601.40625 L 686.054688 643.8125 C 705.566406 672.128906 725.148438 700.375 744.796875 728.554688 C 744.90625 728.710938 745.039062 728.839844 745.195312 728.945312 C 745.355469 729.050781 745.527344 729.121094 745.714844 729.160156 C 745.902344 729.195312 746.089844 729.195312 746.273438 729.15625 C 746.460938 729.121094 746.632812 729.050781 746.792969 728.945312 C 746.953125 728.839844 747.085938 728.707031 747.191406 728.550781 C 747.296875 728.394531 747.371094 728.222656 747.410156 728.035156 C 747.449219 727.847656 747.449219 727.660156 747.417969 727.476562 C 747.382812 727.289062 747.3125 727.113281 747.210938 726.953125 Z M 747.210938 726.902344 " fill-opacity="1" fill-rule="nonzero"></path></g><g clip-path="url(#1077fd0e10)"><path fill="#545454" d="M 489.207031 558.351562 L 481.070312 542.167969 L 472.835938 526.058594 L 464.507812 509.988281 L 456.117188 493.972656 C 450.46875 483.308594 444.847656 472.648438 439.109375 462.046875 L 430.84375 446.726562 L 421.007812 462.175781 C 414.585938 472.253906 408.316406 482.40625 401.96875 492.535156 L 383.09375 523 L 373.75 538.296875 L 369.066406 545.910156 L 364.449219 553.527344 C 359.769531 561.289062 355.113281 569.042969 350.484375 576.792969 C 346.777344 576.792969 233.707031 577.238281 229.203125 577.328125 L 248.585938 546.46875 C 254.117188 537.671875 259.742188 528.941406 265.3125 520.183594 L 282.09375 493.921875 L 349.292969 388.960938 L 352.78125 383.503906 L 349.292969 378.425781 L 291.03125 293.558594 L 232.640625 208.78125 L 203.445312 166.410156 L 174.125 124.09375 C 154.628906 95.863281 135.050781 67.683594 115.394531 39.554688 C 115.289062 39.402344 115.160156 39.273438 115.003906 39.171875 C 114.847656 39.070312 114.679688 39 114.5 38.960938 C 114.316406 38.925781 114.132812 38.921875 113.953125 38.953125 C 113.769531 38.984375 113.597656 39.050781 113.441406 39.148438 C 113.277344 39.253906 113.144531 39.382812 113.035156 39.539062 C 112.921875 39.695312 112.847656 39.867188 112.804688 40.054688 C 112.761719 40.238281 112.753906 40.425781 112.785156 40.617188 C 112.816406 40.804688 112.882812 40.980469 112.984375 41.144531 C 131.261719 70.203125 149.539062 99.242188 167.816406 128.269531 L 195.273438 171.792969 L 222.828125 215.253906 L 278.019531 302.152344 L 329.820312 383.515625 L 263.179688 481.429688 L 245.625 507.171875 C 239.75 515.726562 233.9375 524.332031 228.007812 532.875 L 192.542969 584.117188 L 178.214844 604.832031 L 367.339844 606.101562 L 371.339844 598.917969 C 377.164062 588.484375 382.878906 577.988281 388.613281 567.515625 L 392.917969 559.644531 L 397.183594 551.761719 L 405.710938 536 L 422.480469 504.390625 L 431.074219 488.082031 L 440.910156 502.957031 L 450.964844 518 L 461.117188 533.003906 L 471.273438 547.957031 L 481.566406 562.84375 C 488.457031 572.761719 495.453125 582.613281 502.5625 592.394531 C 502.667969 592.539062 502.796875 592.660156 502.949219 592.753906 C 503.101562 592.851562 503.265625 592.917969 503.441406 592.953125 C 503.617188 592.988281 503.792969 592.992188 503.96875 592.960938 C 504.144531 592.933594 504.3125 592.871094 504.464844 592.777344 C 504.621094 592.6875 504.753906 592.570312 504.863281 592.429688 C 504.976562 592.289062 505.058594 592.132812 505.109375 591.960938 C 505.164062 591.789062 505.183594 591.613281 505.171875 591.433594 C 505.15625 591.253906 505.113281 591.085938 505.035156 590.921875 C 499.925781 580.03125 494.648438 569.175781 489.207031 558.351562 Z M 489.207031 558.351562 " fill-opacity="1" fill-rule="nonzero"></path></g><g transform="matrix(1, 0, 0, 1, 72, 597)"><g clip-path="url(#d6b953a696)"><g fill="#ffffff" fill-opacity="1"><g transform="translate(1.814385, 45.128846)"><g><path d="M 6.5 -29.375 L 6.5 -2.859375 L 17.796875 -2.859375 L 17.796875 0 L 3.5625 0 L 3.5625 -29.375 Z M 6.5 -29.375 "></path></g></g></g><g fill="#ffffff" fill-opacity="1"><g transform="translate(22.760951, 45.128846)"><g><path d="M 25.15625 0 L 20.65625 -9.65625 L 7.765625 -9.65625 L 3.265625 0 L 0.203125 0 L 13.90625 -29.375 L 14.609375 -29.375 L 28.21875 0 Z M 9.078125 -12.4375 L 19.34375 -12.4375 L 14.234375 -23.4375 Z M 9.078125 -12.4375 "></path></g></g></g><g fill="#ffffff" fill-opacity="1"><g transform="translate(53.239812, 45.128846)"><g><path d="M 9.78125 -29.375 C 11.769531 -29.375 13.4375 -29.066406 14.78125 -28.453125 C 16.132812 -27.835938 17.140625 -27 17.796875 -25.9375 C 18.453125 -24.875 18.78125 -23.632812 18.78125 -22.21875 C 18.78125 -20.90625 18.460938 -19.71875 17.828125 -18.65625 C 17.203125 -17.59375 16.265625 -16.71875 15.015625 -16.03125 C 19.128906 -14.644531 21.1875 -12.109375 21.1875 -8.421875 C 21.1875 -6.921875 20.8125 -5.53125 20.0625 -4.25 C 19.3125 -2.96875 18.210938 -1.9375 16.765625 -1.15625 C 15.328125 -0.382812 13.613281 0 11.625 0 L 3.5625 0 L 3.5625 -29.375 Z M 8.46875 -17.0625 C 10.757812 -17.0625 12.535156 -17.472656 13.796875 -18.296875 C 15.066406 -19.128906 15.703125 -20.4375 15.703125 -22.21875 C 15.703125 -23.519531 15.234375 -24.554688 14.296875 -25.328125 C 13.359375 -26.109375 12.039062 -26.5 10.34375 -26.5 L 6.5 -26.5 L 6.5 -17.0625 Z M 11.046875 -2.859375 C 12.628906 -2.859375 13.953125 -3.109375 15.015625 -3.609375 C 16.078125 -4.117188 16.859375 -4.796875 17.359375 -5.640625 C 17.867188 -6.484375 18.125 -7.398438 18.125 -8.390625 C 18.125 -9.609375 17.785156 -10.65625 17.109375 -11.53125 C 16.441406 -12.40625 15.46875 -13.066406 14.1875 -13.515625 C 12.90625 -13.960938 11.367188 -14.1875 9.578125 -14.1875 L 6.5 -14.1875 L 6.5 -2.859375 Z M 11.046875 -2.859375 "></path></g></g></g><g fill="#ffffff" fill-opacity="1"><g transform="translate(78.686595, 45.128846)"><g></g></g></g><g fill="#ffffff" fill-opacity="1"><g transform="translate(92.064593, 45.128846)"><g><path d="M 35.34375 0 L 32.484375 0 L 29.78125 -19.96875 L 29.609375 -21.03125 L 29.125 -20 L 19.21875 0 L 18.484375 0 L 8.46875 -20.046875 L 7.9375 -21.15625 L 7.765625 -19.921875 L 5.109375 0 L 2.25 0 L 6.421875 -29.375 L 6.90625 -29.375 L 18.40625 -6.21875 L 18.859375 -5.28125 L 19.34375 -6.265625 L 30.671875 -29.375 L 31.171875 -29.375 Z M 35.34375 0 "></path></g></g></g><g fill="#ffffff" fill-opacity="1"><g transform="translate(131.707552, 45.128846)"><g><path d="M 25.15625 0 L 20.65625 -9.65625 L 7.765625 -9.65625 L 3.265625 0 L 0.203125 0 L 13.90625 -29.375 L 14.609375 -29.375 L 28.21875 0 Z M 9.078125 -12.4375 L 19.34375 -12.4375 L 14.234375 -23.4375 Z M 9.078125 -12.4375 "></path></g></g></g><g fill="#ffffff" fill-opacity="1"><g transform="translate(162.186413, 45.128846)"><g><path d="M 23.640625 -29.375 L 26.59375 -29.375 L 26.59375 0 L 25.9375 0 L 6.5 -22.21875 L 6.5 0 L 3.5625 0 L 3.5625 -29.375 L 4.171875 -29.375 L 23.640625 -6.875 Z M 23.640625 -29.375 "></path></g></g></g><g fill="#ffffff" fill-opacity="1"><g transform="translate(194.342627, 45.128846)"><g><path d="M 25.15625 0 L 20.65625 -9.65625 L 7.765625 -9.65625 L 3.265625 0 L 0.203125 0 L 13.90625 -29.375 L 14.609375 -29.375 L 28.21875 0 Z M 9.078125 -12.4375 L 19.34375 -12.4375 L 14.234375 -23.4375 Z M 9.078125 -12.4375 "></path></g></g></g><g fill="#ffffff" fill-opacity="1"><g transform="translate(224.821487, 45.128846)"><g><path d="M 33.671875 -14.109375 L 33.671875 -14.03125 C 33.671875 -10.976562 33.046875 -8.347656 31.796875 -6.140625 C 30.554688 -3.929688 28.828125 -2.238281 26.609375 -1.0625 C 24.390625 0.113281 21.820312 0.703125 18.90625 0.703125 C 15.625 0.703125 12.722656 -0.00390625 10.203125 -1.421875 C 7.679688 -2.847656 5.738281 -4.734375 4.375 -7.078125 C 3.007812 -9.421875 2.328125 -11.957031 2.328125 -14.6875 C 2.328125 -17.46875 3.007812 -20.03125 4.375 -22.375 C 5.738281 -24.71875 7.640625 -26.59375 10.078125 -28 C 12.523438 -29.40625 15.316406 -30.109375 18.453125 -30.109375 C 21.097656 -30.109375 23.492188 -29.632812 25.640625 -28.6875 C 27.796875 -27.75 29.882812 -26.328125 31.90625 -24.421875 L 29.65625 -22.296875 C 28.019531 -23.898438 26.234375 -25.125 24.296875 -25.96875 C 22.359375 -26.820312 20.4375 -27.25 18.53125 -27.25 C 16.070312 -27.25 13.835938 -26.703125 11.828125 -25.609375 C 9.828125 -24.515625 8.253906 -23.015625 7.109375 -21.109375 C 5.972656 -19.203125 5.40625 -17.085938 5.40625 -14.765625 C 5.40625 -12.523438 5.988281 -10.4375 7.15625 -8.5 C 8.332031 -6.570312 9.957031 -5.035156 12.03125 -3.890625 C 14.101562 -2.742188 16.421875 -2.171875 18.984375 -2.171875 C 20.859375 -2.171875 22.613281 -2.523438 24.25 -3.234375 C 25.894531 -3.941406 27.253906 -4.976562 28.328125 -6.34375 C 29.398438 -7.707031 30.078125 -9.34375 30.359375 -11.25 L 20.984375 -11.25 L 20.984375 -14.109375 Z M 33.671875 -14.109375 "></path></g></g></g><g fill="#ffffff" fill-opacity="1"><g transform="translate(262.541623, 45.128846)"><g><path d="M 3.5625 -29.375 L 20.328125 -29.375 L 20.328125 -26.546875 L 6.5 -26.546875 L 6.5 -17.265625 L 20.328125 -17.265625 L 20.328125 -14.484375 L 6.5 -14.484375 L 6.5 -2.859375 L 20.328125 -2.859375 L 20.328125 0 L 3.5625 0 Z M 3.5625 -29.375 "></path></g></g></g><g fill="#ffffff" fill-opacity="1"><g transform="translate(286.474699, 45.128846)"><g><path d="M 35.34375 0 L 32.484375 0 L 29.78125 -19.96875 L 29.609375 -21.03125 L 29.125 -20 L 19.21875 0 L 18.484375 0 L 8.46875 -20.046875 L 7.9375 -21.15625 L 7.765625 -19.921875 L 5.109375 0 L 2.25 0 L 6.421875 -29.375 L 6.90625 -29.375 L 18.40625 -6.21875 L 18.859375 -5.28125 L 19.34375 -6.265625 L 30.671875 -29.375 L 31.171875 -29.375 Z M 35.34375 0 "></path></g></g></g><g fill="#ffffff" fill-opacity="1"><g transform="translate(326.117639, 45.128846)"><g><path d="M 3.5625 -29.375 L 20.328125 -29.375 L 20.328125 -26.546875 L 6.5 -26.546875 L 6.5 -17.265625 L 20.328125 -17.265625 L 20.328125 -14.484375 L 6.5 -14.484375 L 6.5 -2.859375 L 20.328125 -2.859375 L 20.328125 0 L 3.5625 0 Z M 3.5625 -29.375 "></path></g></g></g><g fill="#ffffff" fill-opacity="1"><g transform="translate(350.050753, 45.128846)"><g><path d="M 23.640625 -29.375 L 26.59375 -29.375 L 26.59375 0 L 25.9375 0 L 6.5 -22.21875 L 6.5 0 L 3.5625 0 L 3.5625 -29.375 L 4.171875 -29.375 L 23.640625 -6.875 Z M 23.640625 -29.375 "></path></g></g></g><g fill="#ffffff" fill-opacity="1"><g transform="translate(382.206949, 45.128846)"><g><path d="M 7.28125 -26.5 L 0.65625 -26.5 L 0.65625 -29.375 L 16.765625 -29.375 L 16.765625 -26.5 L 10.21875 -26.5 L 10.21875 0 L 7.28125 0 Z M 7.28125 -26.5 "></path></g></g></g><g fill="#ffffff" fill-opacity="1"><g transform="translate(401.680711, 45.128846)"><g></g></g></g><g fill="#ffffff" fill-opacity="1"><g transform="translate(415.058691, 45.128846)"><g><path d="M 9.90625 0.734375 C 7.9375 0.734375 6.242188 0.21875 4.828125 -0.8125 C 3.410156 -1.851562 2.140625 -3.410156 1.015625 -5.484375 L 3.515625 -7 C 4.390625 -5.382812 5.34375 -4.164062 6.375 -3.34375 C 7.414062 -2.53125 8.507812 -2.125 9.65625 -2.125 C 10.664062 -2.125 11.582031 -2.347656 12.40625 -2.796875 C 13.238281 -3.253906 13.894531 -3.863281 14.375 -4.625 C 14.851562 -5.382812 15.09375 -6.21875 15.09375 -7.125 C 15.09375 -8.019531 14.835938 -8.851562 14.328125 -9.625 C 13.828125 -10.40625 13.097656 -11.210938 12.140625 -12.046875 C 11.191406 -12.878906 9.53125 -14.25 7.15625 -16.15625 C 6.09375 -17 5.265625 -17.75 4.671875 -18.40625 C 4.085938 -19.0625 3.644531 -19.765625 3.34375 -20.515625 C 3.050781 -21.265625 2.90625 -22.171875 2.90625 -23.234375 C 2.90625 -24.546875 3.21875 -25.722656 3.84375 -26.765625 C 4.46875 -27.816406 5.328125 -28.632812 6.421875 -29.21875 C 7.515625 -29.8125 8.710938 -30.109375 10.015625 -30.109375 C 11.648438 -30.109375 13.0625 -29.691406 14.25 -28.859375 C 15.4375 -28.023438 16.59375 -26.847656 17.71875 -25.328125 L 15.34375 -23.484375 C 14.71875 -24.296875 14.15625 -24.945312 13.65625 -25.4375 C 13.164062 -25.9375 12.613281 -26.332031 12 -26.625 C 11.382812 -26.925781 10.695312 -27.078125 9.9375 -27.078125 C 9.125 -27.078125 8.414062 -26.90625 7.8125 -26.5625 C 7.207031 -26.226562 6.75 -25.773438 6.4375 -25.203125 C 6.125 -24.628906 5.96875 -24.015625 5.96875 -23.359375 C 5.96875 -22.429688 6.238281 -21.5625 6.78125 -20.75 C 7.332031 -19.945312 8.125 -19.164062 9.15625 -18.40625 C 11.34375 -16.820312 13.03125 -15.507812 14.21875 -14.46875 C 15.40625 -13.4375 16.359375 -12.320312 17.078125 -11.125 C 17.796875 -9.925781 18.15625 -8.601562 18.15625 -7.15625 C 18.15625 -5.789062 17.796875 -4.5 17.078125 -3.28125 C 16.359375 -2.070312 15.367188 -1.097656 14.109375 -0.359375 C 12.859375 0.367188 11.457031 0.734375 9.90625 0.734375 Z M 9.90625 0.734375 "></path></g></g></g><g fill="#ffffff" fill-opacity="1"><g transform="translate(437.028041, 45.128846)"><g><path d="M 10.0625 -14.03125 L 0.609375 -29.375 L 4.015625 -29.375 L 11.53125 -17.265625 L 18.9375 -29.375 L 22.328125 -29.375 L 13.015625 -14.03125 L 13.015625 0 L 10.0625 0 Z M 10.0625 -14.03125 "></path></g></g></g><g fill="#ffffff" fill-opacity="1"><g transform="translate(462.024804, 45.128846)"><g><path d="M 9.90625 0.734375 C 7.9375 0.734375 6.242188 0.21875 4.828125 -0.8125 C 3.410156 -1.851562 2.140625 -3.410156 1.015625 -5.484375 L 3.515625 -7 C 4.390625 -5.382812 5.34375 -4.164062 6.375 -3.34375 C 7.414062 -2.53125 8.507812 -2.125 9.65625 -2.125 C 10.664062 -2.125 11.582031 -2.347656 12.40625 -2.796875 C 13.238281 -3.253906 13.894531 -3.863281 14.375 -4.625 C 14.851562 -5.382812 15.09375 -6.21875 15.09375 -7.125 C 15.09375 -8.019531 14.835938 -8.851562 14.328125 -9.625 C 13.828125 -10.40625 13.097656 -11.210938 12.140625 -12.046875 C 11.191406 -12.878906 9.53125 -14.25 7.15625 -16.15625 C 6.09375 -17 5.265625 -17.75 4.671875 -18.40625 C 4.085938 -19.0625 3.644531 -19.765625 3.34375 -20.515625 C 3.050781 -21.265625 2.90625 -22.171875 2.90625 -23.234375 C 2.90625 -24.546875 3.21875 -25.722656 3.84375 -26.765625 C 4.46875 -27.816406 5.328125 -28.632812 6.421875 -29.21875 C 7.515625 -29.8125 8.710938 -30.109375 10.015625 -30.109375 C 11.648438 -30.109375 13.0625 -29.691406 14.25 -28.859375 C 15.4375 -28.023438 16.59375 -26.847656 17.71875 -25.328125 L 15.34375 -23.484375 C 14.71875 -24.296875 14.15625 -24.945312 13.65625 -25.4375 C 13.164062 -25.9375 12.613281 -26.332031 12 -26.625 C 11.382812 -26.925781 10.695312 -27.078125 9.9375 -27.078125 C 9.125 -27.078125 8.414062 -26.90625 7.8125 -26.5625 C 7.207031 -26.226562 6.75 -25.773438 6.4375 -25.203125 C 6.125 -24.628906 5.96875 -24.015625 5.96875 -23.359375 C 5.96875 -22.429688 6.238281 -21.5625 6.78125 -20.75 C 7.332031 -19.945312 8.125 -19.164062 9.15625 -18.40625 C 11.34375 -16.820312 13.03125 -15.507812 14.21875 -14.46875 C 15.40625 -13.4375 16.359375 -12.320312 17.078125 -11.125 C 17.796875 -9.925781 18.15625 -8.601562 18.15625 -7.15625 C 18.15625 -5.789062 17.796875 -4.5 17.078125 -3.28125 C 16.359375 -2.070312 15.367188 -1.097656 14.109375 -0.359375 C 12.859375 0.367188 11.457031 0.734375 9.90625 0.734375 Z M 9.90625 0.734375 "></path></g></g></g><g fill="#ffffff" fill-opacity="1"><g transform="translate(483.994155, 45.128846)"><g><path d="M 7.28125 -26.5 L 0.65625 -26.5 L 0.65625 -29.375 L 16.765625 -29.375 L 16.765625 -26.5 L 10.21875 -26.5 L 10.21875 0 L 7.28125 0 Z M 7.28125 -26.5 "></path></g></g></g><g fill="#ffffff" fill-opacity="1"><g transform="translate(503.467879, 45.128846)"><g><path d="M 3.5625 -29.375 L 20.328125 -29.375 L 20.328125 -26.546875 L 6.5 -26.546875 L 6.5 -17.265625 L 20.328125 -17.265625 L 20.328125 -14.484375 L 6.5 -14.484375 L 6.5 -2.859375 L 20.328125 -2.859375 L 20.328125 0 L 3.5625 0 Z M 3.5625 -29.375 "></path></g></g></g><g fill="#ffffff" fill-opacity="1"><g transform="translate(527.400993, 45.128846)"><g><path d="M 35.34375 0 L 32.484375 0 L 29.78125 -19.96875 L 29.609375 -21.03125 L 29.125 -20 L 19.21875 0 L 18.484375 0 L 8.46875 -20.046875 L 7.9375 -21.15625 L 7.765625 -19.921875 L 5.109375 0 L 2.25 0 L 6.421875 -29.375 L 6.90625 -29.375 L 18.40625 -6.21875 L 18.859375 -5.28125 L 19.34375 -6.265625 L 30.671875 -29.375 L 31.171875 -29.375 Z M 35.34375 0 "></path></g></g></g><g fill="#ffffff" fill-opacity="1"><g transform="translate(567.043914, 45.128846)"><g><path d="M 9.90625 0.734375 C 7.9375 0.734375 6.242188 0.21875 4.828125 -0.8125 C 3.410156 -1.851562 2.140625 -3.410156 1.015625 -5.484375 L 3.515625 -7 C 4.390625 -5.382812 5.34375 -4.164062 6.375 -3.34375 C 7.414062 -2.53125 8.507812 -2.125 9.65625 -2.125 C 10.664062 -2.125 11.582031 -2.347656 12.40625 -2.796875 C 13.238281 -3.253906 13.894531 -3.863281 14.375 -4.625 C 14.851562 -5.382812 15.09375 -6.21875 15.09375 -7.125 C 15.09375 -8.019531 14.835938 -8.851562 14.328125 -9.625 C 13.828125 -10.40625 13.097656 -11.210938 12.140625 -12.046875 C 11.191406 -12.878906 9.53125 -14.25 7.15625 -16.15625 C 6.09375 -17 5.265625 -17.75 4.671875 -18.40625 C 4.085938 -19.0625 3.644531 -19.765625 3.34375 -20.515625 C 3.050781 -21.265625 2.90625 -22.171875 2.90625 -23.234375 C 2.90625 -24.546875 3.21875 -25.722656 3.84375 -26.765625 C 4.46875 -27.816406 5.328125 -28.632812 6.421875 -29.21875 C 7.515625 -29.8125 8.710938 -30.109375 10.015625 -30.109375 C 11.648438 -30.109375 13.0625 -29.691406 14.25 -28.859375 C 15.4375 -28.023438 16.59375 -26.847656 17.71875 -25.328125 L 15.34375 -23.484375 C 14.71875 -24.296875 14.15625 -24.945312 13.65625 -25.4375 C 13.164062 -25.9375 12.613281 -26.332031 12 -26.625 C 11.382812 -26.925781 10.695312 -27.078125 9.9375 -27.078125 C 9.125 -27.078125 8.414062 -26.90625 7.8125 -26.5625 C 7.207031 -26.226562 6.75 -25.773438 6.4375 -25.203125 C 6.125 -24.628906 5.96875 -24.015625 5.96875 -23.359375 C 5.96875 -22.429688 6.238281 -21.5625 6.78125 -20.75 C 7.332031 -19.945312 8.125 -19.164062 9.15625 -18.40625 C 11.34375 -16.820312 13.03125 -15.507812 14.21875 -14.46875 C 15.40625 -13.4375 16.359375 -12.320312 17.078125 -11.125 C 17.796875 -9.925781 18.15625 -8.601562 18.15625 -7.15625 C 18.15625 -5.789062 17.796875 -4.5 17.078125 -3.28125 C 16.359375 -2.070312 15.367188 -1.097656 14.109375 -0.359375 C 12.859375 0.367188 11.457031 0.734375 9.90625 0.734375 Z M 9.90625 0.734375 "></path></g></g></g></g></g><g transform="matrix(1, 0, 0, 1, 17, 349)"><g clip-path="url(#40039f5a0f)"><g fill="#ffffff" fill-opacity="1"><g transform="translate(1.663048, 50.709066)"><g><path d="M 11.140625 0.828125 C 8.929688 0.828125 7.03125 0.242188 5.4375 -0.921875 C 3.84375 -2.085938 2.414062 -3.835938 1.15625 -6.171875 L 3.96875 -7.875 C 4.945312 -6.0625 6.019531 -4.691406 7.1875 -3.765625 C 8.351562 -2.847656 9.582031 -2.390625 10.875 -2.390625 C 12.007812 -2.390625 13.046875 -2.644531 13.984375 -3.15625 C 14.921875 -3.664062 15.65625 -4.347656 16.1875 -5.203125 C 16.726562 -6.066406 17 -7.003906 17 -8.015625 C 17 -9.023438 16.710938 -9.96875 16.140625 -10.84375 C 15.578125 -11.71875 14.753906 -12.625 13.671875 -13.5625 C 12.597656 -14.5 10.726562 -16.039062 8.0625 -18.1875 C 6.863281 -19.144531 5.929688 -19.988281 5.265625 -20.71875 C 4.609375 -21.457031 4.109375 -22.25 3.765625 -23.09375 C 3.429688 -23.9375 3.265625 -24.957031 3.265625 -26.15625 C 3.265625 -27.632812 3.617188 -28.960938 4.328125 -30.140625 C 5.035156 -31.328125 6.003906 -32.25 7.234375 -32.90625 C 8.460938 -33.570312 9.8125 -33.90625 11.28125 -33.90625 C 13.125 -33.90625 14.710938 -33.4375 16.046875 -32.5 C 17.390625 -31.5625 18.6875 -30.234375 19.9375 -28.515625 L 17.265625 -26.4375 C 16.566406 -27.363281 15.941406 -28.101562 15.390625 -28.65625 C 14.835938 -29.207031 14.210938 -29.648438 13.515625 -29.984375 C 12.828125 -30.328125 12.050781 -30.5 11.1875 -30.5 C 10.269531 -30.5 9.472656 -30.304688 8.796875 -29.921875 C 8.117188 -29.535156 7.601562 -29.019531 7.25 -28.375 C 6.894531 -27.726562 6.71875 -27.035156 6.71875 -26.296875 C 6.71875 -25.253906 7.023438 -24.28125 7.640625 -23.375 C 8.253906 -22.46875 9.144531 -21.585938 10.3125 -20.734375 C 12.769531 -18.953125 14.664062 -17.476562 16 -16.3125 C 17.34375 -15.144531 18.421875 -13.882812 19.234375 -12.53125 C 20.046875 -11.175781 20.453125 -9.6875 20.453125 -8.0625 C 20.453125 -6.519531 20.046875 -5.066406 19.234375 -3.703125 C 18.421875 -2.335938 17.304688 -1.238281 15.890625 -0.40625 C 14.472656 0.414062 12.890625 0.828125 11.140625 0.828125 Z M 11.140625 0.828125 "></path></g></g></g><g fill="#ffffff" fill-opacity="1"><g transform="translate(60.952681, 50.709066)"><g><path d="M 20.03125 0.828125 C 16.71875 0.828125 13.734375 0.046875 11.078125 -1.515625 C 8.421875 -3.085938 6.335938 -5.191406 4.828125 -7.828125 C 3.328125 -10.472656 2.578125 -13.328125 2.578125 -16.390625 C 2.578125 -19.617188 3.34375 -22.566406 4.875 -25.234375 C 6.414062 -27.910156 8.5 -30.023438 11.125 -31.578125 C 13.75 -33.128906 16.628906 -33.90625 19.765625 -33.90625 C 23.046875 -33.90625 26.035156 -33.144531 28.734375 -31.625 C 31.441406 -30.101562 33.570312 -28.015625 35.125 -25.359375 C 36.675781 -22.703125 37.453125 -19.757812 37.453125 -16.53125 C 37.453125 -13.34375 36.679688 -10.421875 35.140625 -7.765625 C 33.609375 -5.109375 31.515625 -3.007812 28.859375 -1.46875 C 26.203125 0.0625 23.257812 0.828125 20.03125 0.828125 Z M 19.9375 -2.390625 C 22.488281 -2.390625 24.835938 -2.992188 26.984375 -4.203125 C 29.140625 -5.421875 30.847656 -7.113281 32.109375 -9.28125 C 33.367188 -11.445312 34 -13.878906 34 -16.578125 C 34 -19.285156 33.34375 -21.710938 32.03125 -23.859375 C 30.726562 -26.003906 29 -27.675781 26.84375 -28.875 C 24.695312 -30.070312 22.394531 -30.671875 19.9375 -30.671875 C 17.519531 -30.671875 15.242188 -30.0625 13.109375 -28.84375 C 10.972656 -27.632812 9.257812 -25.941406 7.96875 -23.765625 C 6.675781 -21.585938 6.03125 -19.128906 6.03125 -16.390625 C 6.03125 -13.753906 6.664062 -11.367188 7.9375 -9.234375 C 9.21875 -7.097656 10.914062 -5.421875 13.03125 -4.203125 C 15.15625 -2.992188 17.457031 -2.390625 19.9375 -2.390625 Z M 19.9375 -2.390625 "></path></g></g></g><g fill="#ffffff" fill-opacity="1"><g transform="translate(137.832438, 50.709066)"><g><path d="M 7.328125 -33.078125 L 7.328125 -3.21875 L 20.03125 -3.21875 L 20.03125 0 L 4 0 L 4 -33.078125 Z M 7.328125 -33.078125 "></path></g></g></g><g fill="#ffffff" fill-opacity="1"><g transform="translate(195.970881, 50.709066)"><g><path d="M 1.515625 -33.078125 L 5.109375 -33.078125 L 16.078125 -7.515625 L 27.21875 -33.078125 L 30.8125 -33.078125 L 16.4375 0 L 15.703125 0 Z M 1.515625 -33.078125 "></path></g></g></g><g fill="#ffffff" fill-opacity="1"><g transform="translate(265.160721, 50.709066)"><g><path d="M 4 -33.078125 L 7.328125 -33.078125 L 7.328125 0 L 4 0 Z M 4 -33.078125 "></path></g></g></g></g></g><g transform="matrix(1, 0, 0, 1, 583, 349)"><g clip-path="url(#f6524eb06c)"><g fill="#545454" fill-opacity="1"><g transform="translate(3.165658, 50.709066)"><g><path d="M 7.328125 -33.078125 L 7.328125 -3.21875 L 20.03125 -3.21875 L 20.03125 0 L 4 0 L 4 -33.078125 Z M 7.328125 -33.078125 "></path></g></g></g><g fill="#545454" fill-opacity="1"><g transform="translate(61.304101, 50.709066)"><g><path d="M 39.796875 0 L 36.578125 0 L 33.53125 -22.484375 L 33.34375 -23.671875 L 32.796875 -22.53125 L 21.65625 0 L 20.8125 0 L 9.53125 -22.578125 L 8.9375 -23.8125 L 8.75 -22.4375 L 5.75 0 L 2.53125 0 L 7.234375 -33.078125 L 7.78125 -33.078125 L 20.734375 -7 L 21.234375 -5.9375 L 21.78125 -7.046875 L 34.546875 -33.078125 L 35.09375 -33.078125 Z M 39.796875 0 "></path></g></g></g><g fill="#545454" fill-opacity="1"><g transform="translate(140.486241, 50.709066)"><g><path d="M 11.140625 0.828125 C 8.929688 0.828125 7.03125 0.242188 5.4375 -0.921875 C 3.84375 -2.085938 2.414062 -3.835938 1.15625 -6.171875 L 3.96875 -7.875 C 4.945312 -6.0625 6.019531 -4.691406 7.1875 -3.765625 C 8.351562 -2.847656 9.582031 -2.390625 10.875 -2.390625 C 12.007812 -2.390625 13.046875 -2.644531 13.984375 -3.15625 C 14.921875 -3.664062 15.65625 -4.347656 16.1875 -5.203125 C 16.726562 -6.066406 17 -7.003906 17 -8.015625 C 17 -9.023438 16.710938 -9.96875 16.140625 -10.84375 C 15.578125 -11.71875 14.753906 -12.625 13.671875 -13.5625 C 12.597656 -14.5 10.726562 -16.039062 8.0625 -18.1875 C 6.863281 -19.144531 5.929688 -19.988281 5.265625 -20.71875 C 4.609375 -21.457031 4.109375 -22.25 3.765625 -23.09375 C 3.429688 -23.9375 3.265625 -24.957031 3.265625 -26.15625 C 3.265625 -27.632812 3.617188 -28.960938 4.328125 -30.140625 C 5.035156 -31.328125 6.003906 -32.25 7.234375 -32.90625 C 8.460938 -33.570312 9.8125 -33.90625 11.28125 -33.90625 C 13.125 -33.90625 14.710938 -33.4375 16.046875 -32.5 C 17.390625 -31.5625 18.6875 -30.234375 19.9375 -28.515625 L 17.265625 -26.4375 C 16.566406 -27.363281 15.941406 -28.101562 15.390625 -28.65625 C 14.835938 -29.207031 14.210938 -29.648438 13.515625 -29.984375 C 12.828125 -30.328125 12.050781 -30.5 11.1875 -30.5 C 10.269531 -30.5 9.472656 -30.304688 8.796875 -29.921875 C 8.117188 -29.535156 7.601562 -29.019531 7.25 -28.375 C 6.894531 -27.726562 6.71875 -27.035156 6.71875 -26.296875 C 6.71875 -25.253906 7.023438 -24.28125 7.640625 -23.375 C 8.253906 -22.46875 9.144531 -21.585938 10.3125 -20.734375 C 12.769531 -18.953125 14.664062 -17.476562 16 -16.3125 C 17.34375 -15.144531 18.421875 -13.882812 19.234375 -12.53125 C 20.046875 -11.175781 20.453125 -9.6875 20.453125 -8.0625 C 20.453125 -6.519531 20.046875 -5.066406 19.234375 -3.703125 C 18.421875 -2.335938 17.304688 -1.238281 15.890625 -0.40625 C 14.472656 0.414062 12.890625 0.828125 11.140625 0.828125 Z M 11.140625 0.828125 "></path></g></g></g></g></g></svg>