<svg xmlns="http://www.w3.org/2000/svg" xmlns:xlink="http://www.w3.org/1999/xlink" width="1024" zoomAndPan="magnify" viewBox="0 0 768 767.999994" height="1024" preserveAspectRatio="xMidYMid meet" version="1.0"><defs><g></g><clipPath id="9130c643c7"><path d="M 355 149 L 767.949219 149 L 767.949219 747 L 355 747 Z M 355 149 " clip-rule="nonzero"></path></clipPath><clipPath id="014eb34a2e"><path d="M 100.449219 21 L 514 21 L 514 618 L 100.449219 618 Z M 100.449219 21 " clip-rule="nonzero"></path></clipPath><clipPath id="b69eac5a04"><rect x="0" width="620" y="0" height="62"></rect></clipPath><clipPath id="88261d889e"><rect x="0" width="331" y="0" height="71"></rect></clipPath><clipPath id="7caf8fda1a"><rect x="0" width="173" y="0" height="71"></rect></clipPath></defs><g clip-path="url(#9130c643c7)"><path fill="#000000" d="M 767.585938 744.582031 C 748.390625 713.984375 729.179688 683.386719 709.949219 652.789062 L 681.089844 606.996094 L 652.125 561.195312 L 594.101562 469.652344 L 539.664062 383.90625 L 609.75 280.953125 L 628.203125 253.886719 C 634.378906 244.878906 640.503906 235.84375 646.722656 226.859375 L 684 172.984375 L 699.074219 151.203125 L 500.28125 149.867188 L 496.089844 157.355469 C 489.96875 168.324219 483.976562 179.363281 477.933594 190.371094 L 473.410156 198.648438 L 468.953125 206.960938 L 459.988281 223.539062 L 442.269531 256.808594 L 433.238281 273.972656 C 429.792969 268.742188 426.347656 263.519531 422.898438 258.304688 L 412.328125 242.488281 L 401.65625 226.726562 L 390.984375 211.007812 L 380.164062 195.351562 C 372.914062 184.914062 365.558594 174.554688 358.09375 164.269531 C 357.992188 164.089844 357.859375 163.941406 357.695312 163.816406 C 357.53125 163.695312 357.351562 163.605469 357.152344 163.554688 C 356.953125 163.503906 356.753906 163.492188 356.550781 163.519531 C 356.347656 163.546875 356.15625 163.613281 355.980469 163.714844 C 355.804688 163.820312 355.652344 163.953125 355.53125 164.117188 C 355.40625 164.277344 355.316406 164.460938 355.265625 164.65625 C 355.214844 164.855469 355.203125 165.058594 355.230469 165.257812 C 355.257812 165.460938 355.324219 165.652344 355.425781 165.828125 C 360.84375 177.308594 366.410156 188.71875 372.128906 200.0625 L 380.683594 217.066406 L 389.355469 234.015625 L 398.09375 250.910156 L 406.914062 267.753906 C 412.851562 278.949219 418.773438 290.160156 424.792969 301.320312 L 433.476562 317.414062 L 443.816406 301.183594 C 450.566406 290.574219 457.160156 279.910156 463.828125 269.261719 L 483.65625 237.230469 L 493.488281 221.148438 L 498.398438 213.140625 L 503.269531 205.132812 C 508.191406 196.980469 513.128906 188.839844 518.011719 180.671875 C 521.90625 180.671875 640.757812 180.214844 645.480469 180.125 L 625.054688 212.566406 C 619.25 221.816406 613.339844 230.984375 607.484375 240.207031 L 589.84375 267.808594 L 519.210938 378.164062 L 515.53125 383.90625 L 519.210938 389.242188 L 580.453125 478.660156 L 641.824219 567.988281 L 672.511719 612.628906 L 703.304688 657.21875 C 723.816406 686.988281 744.398438 716.6875 765.050781 746.316406 C 765.164062 746.484375 765.304688 746.621094 765.472656 746.730469 C 765.636719 746.839844 765.820312 746.914062 766.015625 746.953125 C 766.210938 746.992188 766.410156 746.992188 766.605469 746.953125 C 766.800781 746.914062 766.984375 746.839844 767.148438 746.726562 C 767.316406 746.617188 767.457031 746.480469 767.566406 746.3125 C 767.679688 746.148438 767.757812 745.96875 767.796875 745.773438 C 767.839844 745.574219 767.839844 745.378906 767.804688 745.183594 C 767.769531 744.984375 767.695312 744.804688 767.585938 744.636719 Z M 767.585938 744.582031 " fill-opacity="1" fill-rule="nonzero"></path></g><g clip-path="url(#014eb34a2e)"><path fill="#000000" d="M 496.398438 567.359375 L 487.84375 550.34375 L 479.1875 533.40625 L 470.433594 516.511719 L 461.617188 499.667969 C 455.679688 488.457031 449.769531 477.246094 443.738281 466.101562 L 435.050781 449.996094 L 424.710938 466.238281 C 417.960938 476.832031 411.371094 487.511719 404.699219 498.160156 L 384.859375 530.191406 L 375.039062 546.273438 L 370.117188 554.28125 L 365.257812 562.289062 C 360.339844 570.445312 355.449219 578.601562 350.582031 586.75 C 346.6875 586.75 227.835938 587.21875 223.101562 587.3125 L 243.472656 554.867188 C 249.289062 545.617188 255.203125 536.4375 261.058594 527.226562 L 278.695312 499.613281 L 349.328125 389.257812 L 353 383.515625 L 349.328125 378.179688 L 288.089844 288.945312 L 226.714844 199.808594 L 196.03125 155.257812 L 165.210938 110.765625 C 144.714844 81.082031 124.136719 51.453125 103.476562 21.878906 C 103.363281 21.71875 103.226562 21.582031 103.066406 21.476562 C 102.902344 21.367188 102.726562 21.292969 102.535156 21.253906 C 102.34375 21.214844 102.152344 21.210938 101.957031 21.246094 C 101.765625 21.28125 101.585938 21.347656 101.421875 21.453125 C 101.253906 21.558594 101.109375 21.695312 100.996094 21.859375 C 100.878906 22.023438 100.796875 22.207031 100.753906 22.402344 C 100.707031 22.597656 100.703125 22.792969 100.734375 22.992188 C 100.765625 23.191406 100.835938 23.375 100.941406 23.546875 C 120.152344 54.101562 139.367188 84.636719 158.578125 115.15625 L 187.4375 160.917969 L 216.402344 206.613281 L 274.414062 297.984375 L 328.863281 383.53125 L 258.816406 486.484375 L 240.363281 513.546875 C 234.1875 522.542969 228.078125 531.59375 221.847656 540.574219 L 184.570312 594.453125 L 169.503906 616.234375 L 368.300781 617.566406 L 372.503906 610.015625 C 378.628906 599.042969 384.632812 588.007812 390.664062 576.996094 L 395.183594 568.722656 L 399.667969 560.433594 L 408.632812 543.855469 L 426.257812 510.625 L 435.292969 493.476562 L 445.632812 509.117188 L 456.199219 524.933594 L 466.871094 540.707031 L 477.546875 556.429688 L 488.367188 572.085938 C 495.605469 582.511719 502.960938 592.867188 510.433594 603.152344 C 510.546875 603.304688 510.679688 603.433594 510.839844 603.535156 C 511 603.636719 511.171875 603.703125 511.355469 603.742188 C 511.542969 603.78125 511.726562 603.78125 511.914062 603.75 C 512.097656 603.71875 512.273438 603.65625 512.4375 603.558594 C 512.597656 603.460938 512.738281 603.339844 512.855469 603.191406 C 512.96875 603.042969 513.054688 602.878906 513.113281 602.699219 C 513.167969 602.515625 513.1875 602.332031 513.175781 602.144531 C 513.160156 601.957031 513.117188 601.777344 513.035156 601.605469 C 507.664062 590.15625 502.117188 578.738281 496.398438 567.359375 Z M 496.398438 567.359375 " fill-opacity="1" fill-rule="nonzero"></path></g><g transform="matrix(1, 0, 0, 1, 58, 608)"><g clip-path="url(#b69eac5a04)"><g fill="#000000" fill-opacity="1"><g transform="translate(1.762308, 47.376634)"><g><path d="M 6.84375 -30.890625 L 6.84375 -3.015625 L 18.71875 -3.015625 L 18.71875 0 L 3.75 0 L 3.75 -30.890625 Z M 6.84375 -30.890625 "></path></g></g></g><g fill="#000000" fill-opacity="1"><g transform="translate(23.783902, 47.376634)"><g><path d="M 26.453125 0 L 21.71875 -10.15625 L 8.171875 -10.15625 L 3.4375 0 L 0.21875 0 L 14.625 -30.890625 L 15.359375 -30.890625 L 29.6875 0 Z M 9.546875 -13.078125 L 20.34375 -13.078125 L 14.96875 -24.640625 Z M 9.546875 -13.078125 "></path></g></g></g><g fill="#000000" fill-opacity="1"><g transform="translate(55.827012, 47.376634)"><g><path d="M 10.28125 -30.890625 C 12.375 -30.890625 14.128906 -30.566406 15.546875 -29.921875 C 16.960938 -29.273438 18.015625 -28.390625 18.703125 -27.265625 C 19.398438 -26.148438 19.75 -24.847656 19.75 -23.359375 C 19.75 -21.984375 19.414062 -20.734375 18.75 -19.609375 C 18.09375 -18.492188 17.101562 -17.578125 15.78125 -16.859375 C 20.113281 -15.398438 22.28125 -12.734375 22.28125 -8.859375 C 22.28125 -7.285156 21.882812 -5.820312 21.09375 -4.46875 C 20.3125 -3.125 19.160156 -2.039062 17.640625 -1.21875 C 16.117188 -0.40625 14.3125 0 12.21875 0 L 3.75 0 L 3.75 -30.890625 Z M 8.90625 -17.9375 C 11.3125 -17.9375 13.179688 -18.375 14.515625 -19.25 C 15.847656 -20.125 16.515625 -21.492188 16.515625 -23.359375 C 16.515625 -24.734375 16.019531 -25.828125 15.03125 -26.640625 C 14.039062 -27.460938 12.660156 -27.875 10.890625 -27.875 L 6.84375 -27.875 L 6.84375 -17.9375 Z M 11.609375 -3.015625 C 13.273438 -3.015625 14.664062 -3.28125 15.78125 -3.8125 C 16.90625 -4.34375 17.734375 -5.050781 18.265625 -5.9375 C 18.796875 -6.820312 19.0625 -7.78125 19.0625 -8.8125 C 19.0625 -10.101562 18.707031 -11.207031 18 -12.125 C 17.300781 -13.039062 16.273438 -13.734375 14.921875 -14.203125 C 13.578125 -14.679688 11.957031 -14.921875 10.0625 -14.921875 L 6.84375 -14.921875 L 6.84375 -3.015625 Z M 11.609375 -3.015625 "></path></g></g></g><g fill="#000000" fill-opacity="1"><g transform="translate(82.579786, 47.376634)"><g></g></g></g><g fill="#000000" fill-opacity="1"><g transform="translate(96.644376, 47.376634)"><g><path d="M 37.171875 0 L 34.15625 0 L 31.3125 -20.984375 L 31.140625 -22.109375 L 30.625 -21.03125 L 20.21875 0 L 19.4375 0 L 8.90625 -21.078125 L 8.34375 -22.234375 L 8.171875 -20.953125 L 5.375 0 L 2.359375 0 L 6.75 -30.890625 L 7.265625 -30.890625 L 19.359375 -6.53125 L 19.828125 -5.546875 L 20.34375 -6.578125 L 32.265625 -30.890625 L 32.78125 -30.890625 Z M 37.171875 0 "></path></g></g></g><g fill="#000000" fill-opacity="1"><g transform="translate(138.321907, 47.376634)"><g><path d="M 26.453125 0 L 21.71875 -10.15625 L 8.171875 -10.15625 L 3.4375 0 L 0.21875 0 L 14.625 -30.890625 L 15.359375 -30.890625 L 29.6875 0 Z M 9.546875 -13.078125 L 20.34375 -13.078125 L 14.96875 -24.640625 Z M 9.546875 -13.078125 "></path></g></g></g><g fill="#000000" fill-opacity="1"><g transform="translate(170.365017, 47.376634)"><g><path d="M 24.859375 -30.890625 L 27.953125 -30.890625 L 27.953125 0 L 27.265625 0 L 6.84375 -23.359375 L 6.84375 0 L 3.75 0 L 3.75 -30.890625 L 4.390625 -30.890625 L 24.859375 -7.234375 Z M 24.859375 -30.890625 "></path></g></g></g><g fill="#000000" fill-opacity="1"><g transform="translate(204.171566, 47.376634)"><g><path d="M 26.453125 0 L 21.71875 -10.15625 L 8.171875 -10.15625 L 3.4375 0 L 0.21875 0 L 14.625 -30.890625 L 15.359375 -30.890625 L 29.6875 0 Z M 9.546875 -13.078125 L 20.34375 -13.078125 L 14.96875 -24.640625 Z M 9.546875 -13.078125 "></path></g></g></g><g fill="#000000" fill-opacity="1"><g transform="translate(236.214676, 47.376634)"><g><path d="M 35.40625 -14.84375 L 35.40625 -14.75 C 35.40625 -11.539062 34.75 -8.773438 33.4375 -6.453125 C 32.132812 -4.128906 30.3125 -2.347656 27.96875 -1.109375 C 25.632812 0.117188 22.9375 0.734375 19.875 0.734375 C 16.4375 0.734375 13.390625 -0.0078125 10.734375 -1.5 C 8.078125 -3 6.03125 -4.976562 4.59375 -7.4375 C 3.164062 -9.90625 2.453125 -12.570312 2.453125 -15.4375 C 2.453125 -18.363281 3.164062 -21.0625 4.59375 -23.53125 C 6.03125 -26 8.03125 -27.96875 10.59375 -29.4375 C 13.164062 -30.914062 16.101562 -31.65625 19.40625 -31.65625 C 22.1875 -31.65625 24.707031 -31.160156 26.96875 -30.171875 C 29.238281 -29.179688 31.429688 -27.6875 33.546875 -25.6875 L 31.1875 -23.4375 C 29.46875 -25.132812 27.585938 -26.425781 25.546875 -27.3125 C 23.515625 -28.207031 21.492188 -28.65625 19.484375 -28.65625 C 16.898438 -28.65625 14.554688 -28.078125 12.453125 -26.921875 C 10.347656 -25.773438 8.691406 -24.195312 7.484375 -22.1875 C 6.273438 -20.1875 5.671875 -17.96875 5.671875 -15.53125 C 5.671875 -13.175781 6.285156 -10.976562 7.515625 -8.9375 C 8.753906 -6.90625 10.460938 -5.285156 12.640625 -4.078125 C 14.828125 -2.878906 17.265625 -2.28125 19.953125 -2.28125 C 21.929688 -2.28125 23.78125 -2.648438 25.5 -3.390625 C 27.226562 -4.140625 28.65625 -5.226562 29.78125 -6.65625 C 30.914062 -8.09375 31.628906 -9.816406 31.921875 -11.828125 L 22.0625 -11.828125 L 22.0625 -14.84375 Z M 35.40625 -14.84375 "></path></g></g></g><g fill="#000000" fill-opacity="1"><g transform="translate(275.8707, 47.376634)"><g><path d="M 3.75 -30.890625 L 21.375 -30.890625 L 21.375 -27.921875 L 6.84375 -27.921875 L 6.84375 -18.15625 L 21.375 -18.15625 L 21.375 -15.234375 L 6.84375 -15.234375 L 6.84375 -3.015625 L 21.375 -3.015625 L 21.375 0 L 3.75 0 Z M 3.75 -30.890625 "></path></g></g></g><g fill="#000000" fill-opacity="1"><g transform="translate(301.03208, 47.376634)"><g><path d="M 37.171875 0 L 34.15625 0 L 31.3125 -20.984375 L 31.140625 -22.109375 L 30.625 -21.03125 L 20.21875 0 L 19.4375 0 L 8.90625 -21.078125 L 8.34375 -22.234375 L 8.171875 -20.953125 L 5.375 0 L 2.359375 0 L 6.75 -30.890625 L 7.265625 -30.890625 L 19.359375 -6.53125 L 19.828125 -5.546875 L 20.34375 -6.578125 L 32.265625 -30.890625 L 32.78125 -30.890625 Z M 37.171875 0 "></path></g></g></g><g fill="#000000" fill-opacity="1"><g transform="translate(342.709592, 47.376634)"><g><path d="M 3.75 -30.890625 L 21.375 -30.890625 L 21.375 -27.921875 L 6.84375 -27.921875 L 6.84375 -18.15625 L 21.375 -18.15625 L 21.375 -15.234375 L 6.84375 -15.234375 L 6.84375 -3.015625 L 21.375 -3.015625 L 21.375 0 L 3.75 0 Z M 3.75 -30.890625 "></path></g></g></g><g fill="#000000" fill-opacity="1"><g transform="translate(367.871012, 47.376634)"><g><path d="M 24.859375 -30.890625 L 27.953125 -30.890625 L 27.953125 0 L 27.265625 0 L 6.84375 -23.359375 L 6.84375 0 L 3.75 0 L 3.75 -30.890625 L 4.390625 -30.890625 L 24.859375 -7.234375 Z M 24.859375 -30.890625 "></path></g></g></g><g fill="#000000" fill-opacity="1"><g transform="translate(401.677541, 47.376634)"><g><path d="M 7.65625 -27.875 L 0.6875 -27.875 L 0.6875 -30.890625 L 17.640625 -30.890625 L 17.640625 -27.875 L 10.75 -27.875 L 10.75 0 L 7.65625 0 Z M 7.65625 -27.875 "></path></g></g></g><g fill="#000000" fill-opacity="1"><g transform="translate(422.150744, 47.376634)"><g></g></g></g><g fill="#000000" fill-opacity="1"><g transform="translate(436.215314, 47.376634)"><g><path d="M 10.40625 0.78125 C 8.34375 0.78125 6.566406 0.234375 5.078125 -0.859375 C 3.585938 -1.953125 2.253906 -3.585938 1.078125 -5.765625 L 3.703125 -7.359375 C 4.617188 -5.660156 5.617188 -4.378906 6.703125 -3.515625 C 7.796875 -2.660156 8.945312 -2.234375 10.15625 -2.234375 C 11.21875 -2.234375 12.1875 -2.46875 13.0625 -2.9375 C 13.9375 -3.414062 14.625 -4.054688 15.125 -4.859375 C 15.625 -5.660156 15.875 -6.535156 15.875 -7.484375 C 15.875 -8.429688 15.609375 -9.3125 15.078125 -10.125 C 14.546875 -10.945312 13.773438 -11.796875 12.765625 -12.671875 C 11.765625 -13.546875 10.019531 -14.984375 7.53125 -16.984375 C 6.40625 -17.878906 5.535156 -18.671875 4.921875 -19.359375 C 4.304688 -20.046875 3.835938 -20.78125 3.515625 -21.5625 C 3.203125 -22.351562 3.046875 -23.3125 3.046875 -24.4375 C 3.046875 -25.8125 3.375 -27.050781 4.03125 -28.15625 C 4.695312 -29.257812 5.601562 -30.117188 6.75 -30.734375 C 7.894531 -31.347656 9.15625 -31.65625 10.53125 -31.65625 C 12.257812 -31.65625 13.742188 -31.21875 14.984375 -30.34375 C 16.234375 -29.46875 17.445312 -28.226562 18.625 -26.625 L 16.125 -24.6875 C 15.46875 -25.550781 14.878906 -26.238281 14.359375 -26.75 C 13.847656 -27.269531 13.269531 -27.6875 12.625 -28 C 11.976562 -28.3125 11.253906 -28.46875 10.453125 -28.46875 C 9.585938 -28.46875 8.835938 -28.289062 8.203125 -27.9375 C 7.578125 -27.582031 7.097656 -27.101562 6.765625 -26.5 C 6.441406 -25.894531 6.28125 -25.25 6.28125 -24.5625 C 6.28125 -23.582031 6.566406 -22.671875 7.140625 -21.828125 C 7.710938 -20.984375 8.546875 -20.160156 9.640625 -19.359375 C 11.929688 -17.691406 13.695312 -16.3125 14.9375 -15.21875 C 16.1875 -14.132812 17.191406 -12.960938 17.953125 -11.703125 C 18.710938 -10.441406 19.09375 -9.050781 19.09375 -7.53125 C 19.09375 -6.09375 18.710938 -4.734375 17.953125 -3.453125 C 17.191406 -2.179688 16.148438 -1.15625 14.828125 -0.375 C 13.515625 0.394531 12.039062 0.78125 10.40625 0.78125 Z M 10.40625 0.78125 "></path></g></g></g><g fill="#000000" fill-opacity="1"><g transform="translate(459.312185, 47.376634)"><g><path d="M 10.578125 -14.75 L 0.640625 -30.890625 L 4.21875 -30.890625 L 12.125 -18.15625 L 19.921875 -30.890625 L 23.484375 -30.890625 L 13.671875 -14.75 L 13.671875 0 L 10.578125 0 Z M 10.578125 -14.75 "></path></g></g></g><g fill="#000000" fill-opacity="1"><g transform="translate(485.591842, 47.376634)"><g><path d="M 10.40625 0.78125 C 8.34375 0.78125 6.566406 0.234375 5.078125 -0.859375 C 3.585938 -1.953125 2.253906 -3.585938 1.078125 -5.765625 L 3.703125 -7.359375 C 4.617188 -5.660156 5.617188 -4.378906 6.703125 -3.515625 C 7.796875 -2.660156 8.945312 -2.234375 10.15625 -2.234375 C 11.21875 -2.234375 12.1875 -2.46875 13.0625 -2.9375 C 13.9375 -3.414062 14.625 -4.054688 15.125 -4.859375 C 15.625 -5.660156 15.875 -6.535156 15.875 -7.484375 C 15.875 -8.429688 15.609375 -9.3125 15.078125 -10.125 C 14.546875 -10.945312 13.773438 -11.796875 12.765625 -12.671875 C 11.765625 -13.546875 10.019531 -14.984375 7.53125 -16.984375 C 6.40625 -17.878906 5.535156 -18.671875 4.921875 -19.359375 C 4.304688 -20.046875 3.835938 -20.78125 3.515625 -21.5625 C 3.203125 -22.351562 3.046875 -23.3125 3.046875 -24.4375 C 3.046875 -25.8125 3.375 -27.050781 4.03125 -28.15625 C 4.695312 -29.257812 5.601562 -30.117188 6.75 -30.734375 C 7.894531 -31.347656 9.15625 -31.65625 10.53125 -31.65625 C 12.257812 -31.65625 13.742188 -31.21875 14.984375 -30.34375 C 16.234375 -29.46875 17.445312 -28.226562 18.625 -26.625 L 16.125 -24.6875 C 15.46875 -25.550781 14.878906 -26.238281 14.359375 -26.75 C 13.847656 -27.269531 13.269531 -27.6875 12.625 -28 C 11.976562 -28.3125 11.253906 -28.46875 10.453125 -28.46875 C 9.585938 -28.46875 8.835938 -28.289062 8.203125 -27.9375 C 7.578125 -27.582031 7.097656 -27.101562 6.765625 -26.5 C 6.441406 -25.894531 6.28125 -25.25 6.28125 -24.5625 C 6.28125 -23.582031 6.566406 -22.671875 7.140625 -21.828125 C 7.710938 -20.984375 8.546875 -20.160156 9.640625 -19.359375 C 11.929688 -17.691406 13.695312 -16.3125 14.9375 -15.21875 C 16.1875 -14.132812 17.191406 -12.960938 17.953125 -11.703125 C 18.710938 -10.441406 19.09375 -9.050781 19.09375 -7.53125 C 19.09375 -6.09375 18.710938 -4.734375 17.953125 -3.453125 C 17.191406 -2.179688 16.148438 -1.15625 14.828125 -0.375 C 13.515625 0.394531 12.039062 0.78125 10.40625 0.78125 Z M 10.40625 0.78125 "></path></g></g></g><g fill="#000000" fill-opacity="1"><g transform="translate(508.688713, 47.376634)"><g><path d="M 7.65625 -27.875 L 0.6875 -27.875 L 0.6875 -30.890625 L 17.640625 -30.890625 L 17.640625 -27.875 L 10.75 -27.875 L 10.75 0 L 7.65625 0 Z M 7.65625 -27.875 "></path></g></g></g><g fill="#000000" fill-opacity="1"><g transform="translate(529.161876, 47.376634)"><g><path d="M 3.75 -30.890625 L 21.375 -30.890625 L 21.375 -27.921875 L 6.84375 -27.921875 L 6.84375 -18.15625 L 21.375 -18.15625 L 21.375 -15.234375 L 6.84375 -15.234375 L 6.84375 -3.015625 L 21.375 -3.015625 L 21.375 0 L 3.75 0 Z M 3.75 -30.890625 "></path></g></g></g><g fill="#000000" fill-opacity="1"><g transform="translate(554.323296, 47.376634)"><g><path d="M 37.171875 0 L 34.15625 0 L 31.3125 -20.984375 L 31.140625 -22.109375 L 30.625 -21.03125 L 20.21875 0 L 19.4375 0 L 8.90625 -21.078125 L 8.34375 -22.234375 L 8.171875 -20.953125 L 5.375 0 L 2.359375 0 L 6.75 -30.890625 L 7.265625 -30.890625 L 19.359375 -6.53125 L 19.828125 -5.546875 L 20.34375 -6.578125 L 32.265625 -30.890625 L 32.78125 -30.890625 Z M 37.171875 0 "></path></g></g></g><g fill="#000000" fill-opacity="1"><g transform="translate(596.000787, 47.376634)"><g><path d="M 10.40625 0.78125 C 8.34375 0.78125 6.566406 0.234375 5.078125 -0.859375 C 3.585938 -1.953125 2.253906 -3.585938 1.078125 -5.765625 L 3.703125 -7.359375 C 4.617188 -5.660156 5.617188 -4.378906 6.703125 -3.515625 C 7.796875 -2.660156 8.945312 -2.234375 10.15625 -2.234375 C 11.21875 -2.234375 12.1875 -2.46875 13.0625 -2.9375 C 13.9375 -3.414062 14.625 -4.054688 15.125 -4.859375 C 15.625 -5.660156 15.875 -6.535156 15.875 -7.484375 C 15.875 -8.429688 15.609375 -9.3125 15.078125 -10.125 C 14.546875 -10.945312 13.773438 -11.796875 12.765625 -12.671875 C 11.765625 -13.546875 10.019531 -14.984375 7.53125 -16.984375 C 6.40625 -17.878906 5.535156 -18.671875 4.921875 -19.359375 C 4.304688 -20.046875 3.835938 -20.78125 3.515625 -21.5625 C 3.203125 -22.351562 3.046875 -23.3125 3.046875 -24.4375 C 3.046875 -25.8125 3.375 -27.050781 4.03125 -28.15625 C 4.695312 -29.257812 5.601562 -30.117188 6.75 -30.734375 C 7.894531 -31.347656 9.15625 -31.65625 10.53125 -31.65625 C 12.257812 -31.65625 13.742188 -31.21875 14.984375 -30.34375 C 16.234375 -29.46875 17.445312 -28.226562 18.625 -26.625 L 16.125 -24.6875 C 15.46875 -25.550781 14.878906 -26.238281 14.359375 -26.75 C 13.847656 -27.269531 13.269531 -27.6875 12.625 -28 C 11.976562 -28.3125 11.253906 -28.46875 10.453125 -28.46875 C 9.585938 -28.46875 8.835938 -28.289062 8.203125 -27.9375 C 7.578125 -27.582031 7.097656 -27.101562 6.765625 -26.5 C 6.441406 -25.894531 6.28125 -25.25 6.28125 -24.5625 C 6.28125 -23.582031 6.566406 -22.671875 7.140625 -21.828125 C 7.710938 -20.984375 8.546875 -20.160156 9.640625 -19.359375 C 11.929688 -17.691406 13.695312 -16.3125 14.9375 -15.21875 C 16.1875 -14.132812 17.191406 -12.960938 17.953125 -11.703125 C 18.710938 -10.441406 19.09375 -9.050781 19.09375 -7.53125 C 19.09375 -6.09375 18.710938 -4.734375 17.953125 -3.453125 C 17.191406 -2.179688 16.148438 -1.15625 14.828125 -0.375 C 13.515625 0.394531 12.039062 0.78125 10.40625 0.78125 Z M 10.40625 0.78125 "></path></g></g></g></g></g><g transform="matrix(1, 0, 0, 1, 0, 347)"><g clip-path="url(#88261d889e)"><g fill="#000000" fill-opacity="1"><g transform="translate(1.780473, 53.515342)"><g><path d="M 11.71875 0.875 C 9.394531 0.875 7.394531 0.257812 5.71875 -0.96875 C 4.039062 -2.195312 2.535156 -4.035156 1.203125 -6.484375 L 4.171875 -8.28125 C 5.203125 -6.375 6.328125 -4.9375 7.546875 -3.96875 C 8.773438 -3 10.066406 -2.515625 11.421875 -2.515625 C 12.617188 -2.515625 13.707031 -2.78125 14.6875 -3.3125 C 15.675781 -3.84375 16.453125 -4.5625 17.015625 -5.46875 C 17.585938 -6.375 17.875 -7.359375 17.875 -8.421875 C 17.875 -9.484375 17.570312 -10.472656 16.96875 -11.390625 C 16.375 -12.316406 15.507812 -13.269531 14.375 -14.25 C 13.25 -15.238281 11.28125 -16.863281 8.46875 -19.125 C 7.207031 -20.125 6.226562 -21.007812 5.53125 -21.78125 C 4.84375 -22.5625 4.320312 -23.394531 3.96875 -24.28125 C 3.613281 -25.164062 3.4375 -26.238281 3.4375 -27.5 C 3.4375 -29.050781 3.804688 -30.445312 4.546875 -31.6875 C 5.296875 -32.9375 6.316406 -33.90625 7.609375 -34.59375 C 8.898438 -35.289062 10.316406 -35.640625 11.859375 -35.640625 C 13.796875 -35.640625 15.46875 -35.144531 16.875 -34.15625 C 18.28125 -33.175781 19.644531 -31.78125 20.96875 -29.96875 L 18.15625 -27.796875 C 17.414062 -28.765625 16.753906 -29.535156 16.171875 -30.109375 C 15.585938 -30.691406 14.929688 -31.160156 14.203125 -31.515625 C 13.484375 -31.878906 12.671875 -32.0625 11.765625 -32.0625 C 10.796875 -32.0625 9.957031 -31.859375 9.25 -31.453125 C 8.539062 -31.046875 8 -30.503906 7.625 -29.828125 C 7.25 -29.148438 7.0625 -28.425781 7.0625 -27.65625 C 7.0625 -26.550781 7.382812 -25.519531 8.03125 -24.5625 C 8.675781 -23.613281 9.613281 -22.691406 10.84375 -21.796875 C 13.425781 -19.921875 15.421875 -18.367188 16.828125 -17.140625 C 18.234375 -15.910156 19.363281 -14.585938 20.21875 -13.171875 C 21.070312 -11.753906 21.5 -10.1875 21.5 -8.46875 C 21.5 -6.851562 21.070312 -5.328125 20.21875 -3.890625 C 19.363281 -2.460938 18.191406 -1.3125 16.703125 -0.4375 C 15.222656 0.4375 13.5625 0.875 11.71875 0.875 Z M 11.71875 0.875 "></path></g></g></g><g fill="#000000" fill-opacity="1"><g transform="translate(64.112996, 53.515342)"><g><path d="M 21.0625 0.875 C 17.570312 0.875 14.429688 0.0507812 11.640625 -1.59375 C 8.847656 -3.238281 6.660156 -5.445312 5.078125 -8.21875 C 3.503906 -11 2.71875 -14.003906 2.71875 -17.234375 C 2.71875 -20.628906 3.519531 -23.726562 5.125 -26.53125 C 6.738281 -29.34375 8.925781 -31.5625 11.6875 -33.1875 C 14.445312 -34.820312 17.472656 -35.640625 20.765625 -35.640625 C 24.222656 -35.640625 27.367188 -34.835938 30.203125 -33.234375 C 33.046875 -31.640625 35.28125 -29.445312 36.90625 -26.65625 C 38.539062 -23.863281 39.359375 -20.773438 39.359375 -17.390625 C 39.359375 -14.023438 38.550781 -10.945312 36.9375 -8.15625 C 35.332031 -5.363281 33.128906 -3.160156 30.328125 -1.546875 C 27.535156 0.0664062 24.445312 0.875 21.0625 0.875 Z M 20.96875 -2.515625 C 23.644531 -2.515625 26.113281 -3.148438 28.375 -4.421875 C 30.632812 -5.703125 32.425781 -7.476562 33.75 -9.75 C 35.070312 -12.03125 35.734375 -14.59375 35.734375 -17.4375 C 35.734375 -20.269531 35.046875 -22.816406 33.671875 -25.078125 C 32.304688 -27.335938 30.492188 -29.097656 28.234375 -30.359375 C 25.972656 -31.617188 23.550781 -32.25 20.96875 -32.25 C 18.414062 -32.25 16.015625 -31.609375 13.765625 -30.328125 C 11.523438 -29.054688 9.726562 -27.273438 8.375 -24.984375 C 7.019531 -22.691406 6.34375 -20.109375 6.34375 -17.234375 C 6.34375 -14.460938 7.007812 -11.953125 8.34375 -9.703125 C 9.6875 -7.460938 11.472656 -5.703125 13.703125 -4.421875 C 15.929688 -3.148438 18.351562 -2.515625 20.96875 -2.515625 Z M 20.96875 -2.515625 "></path></g></g></g><g fill="#000000" fill-opacity="1"><g transform="translate(144.938412, 53.515342)"><g><path d="M 7.703125 -34.765625 L 7.703125 -3.390625 L 21.0625 -3.390625 L 21.0625 0 L 4.21875 0 L 4.21875 -34.765625 Z M 7.703125 -34.765625 "></path></g></g></g><g fill="#000000" fill-opacity="1"><g transform="translate(206.060664, 53.515342)"><g><path d="M 1.59375 -34.765625 L 5.375 -34.765625 L 16.90625 -7.890625 L 28.625 -34.765625 L 32.390625 -34.765625 L 17.28125 0 L 16.515625 0 Z M 1.59375 -34.765625 "></path></g></g></g><g fill="#000000" fill-opacity="1"><g transform="translate(278.801498, 53.515342)"><g><path d="M 4.21875 -34.765625 L 7.703125 -34.765625 L 7.703125 0 L 4.21875 0 Z M 4.21875 -34.765625 "></path></g></g></g></g></g><g transform="matrix(1, 0, 0, 1, 595, 347)"><g clip-path="url(#7caf8fda1a)"><g fill="#000000" fill-opacity="1"><g transform="translate(3.408698, 53.515342)"><g><path d="M 7.703125 -34.765625 L 7.703125 -3.390625 L 21.0625 -3.390625 L 21.0625 0 L 4.21875 0 L 4.21875 -34.765625 Z M 7.703125 -34.765625 "></path></g></g></g><g fill="#000000" fill-opacity="1"><g transform="translate(64.530949, 53.515342)"><g><path d="M 41.84375 0 L 38.453125 0 L 35.25 -23.625 L 35.0625 -24.890625 L 34.46875 -23.671875 L 22.765625 0 L 21.890625 0 L 10.015625 -23.734375 L 9.390625 -25.03125 L 9.203125 -23.578125 L 6.046875 0 L 2.65625 0 L 7.609375 -34.765625 L 8.1875 -34.765625 L 21.796875 -7.359375 L 22.328125 -6.25 L 22.90625 -7.40625 L 36.3125 -34.765625 L 36.890625 -34.765625 Z M 41.84375 0 "></path></g></g></g><g fill="#000000" fill-opacity="1"><g transform="translate(147.776913, 53.515342)"><g><path d="M 11.71875 0.875 C 9.394531 0.875 7.394531 0.257812 5.71875 -0.96875 C 4.039062 -2.195312 2.535156 -4.035156 1.203125 -6.484375 L 4.171875 -8.28125 C 5.203125 -6.375 6.328125 -4.9375 7.546875 -3.96875 C 8.773438 -3 10.066406 -2.515625 11.421875 -2.515625 C 12.617188 -2.515625 13.707031 -2.78125 14.6875 -3.3125 C 15.675781 -3.84375 16.453125 -4.5625 17.015625 -5.46875 C 17.585938 -6.375 17.875 -7.359375 17.875 -8.421875 C 17.875 -9.484375 17.570312 -10.472656 16.96875 -11.390625 C 16.375 -12.316406 15.507812 -13.269531 14.375 -14.25 C 13.25 -15.238281 11.28125 -16.863281 8.46875 -19.125 C 7.207031 -20.125 6.226562 -21.007812 5.53125 -21.78125 C 4.84375 -22.5625 4.320312 -23.394531 3.96875 -24.28125 C 3.613281 -25.164062 3.4375 -26.238281 3.4375 -27.5 C 3.4375 -29.050781 3.804688 -30.445312 4.546875 -31.6875 C 5.296875 -32.9375 6.316406 -33.90625 7.609375 -34.59375 C 8.898438 -35.289062 10.316406 -35.640625 11.859375 -35.640625 C 13.796875 -35.640625 15.46875 -35.144531 16.875 -34.15625 C 18.28125 -33.175781 19.644531 -31.78125 20.96875 -29.96875 L 18.15625 -27.796875 C 17.414062 -28.765625 16.753906 -29.535156 16.171875 -30.109375 C 15.585938 -30.691406 14.929688 -31.160156 14.203125 -31.515625 C 13.484375 -31.878906 12.671875 -32.0625 11.765625 -32.0625 C 10.796875 -32.0625 9.957031 -31.859375 9.25 -31.453125 C 8.539062 -31.046875 8 -30.503906 7.625 -29.828125 C 7.25 -29.148438 7.0625 -28.425781 7.0625 -27.65625 C 7.0625 -26.550781 7.382812 -25.519531 8.03125 -24.5625 C 8.675781 -23.613281 9.613281 -22.691406 10.84375 -21.796875 C 13.425781 -19.921875 15.421875 -18.367188 16.828125 -17.140625 C 18.234375 -15.910156 19.363281 -14.585938 20.21875 -13.171875 C 21.070312 -11.753906 21.5 -10.1875 21.5 -8.46875 C 21.5 -6.851562 21.070312 -5.328125 20.21875 -3.890625 C 19.363281 -2.460938 18.191406 -1.3125 16.703125 -0.4375 C 15.222656 0.4375 13.5625 0.875 11.71875 0.875 Z M 11.71875 0.875 "></path></g></g></g></g></g></svg>