<svg xmlns="http://www.w3.org/2000/svg" xmlns:xlink="http://www.w3.org/1999/xlink" width="1024" zoomAndPan="magnify" viewBox="0 0 768 767.999994" height="1024" preserveAspectRatio="xMidYMid meet" version="1.0"><defs><g></g><clipPath id="776dcdd2f4"><path d="M 443 307 L 539.046875 307 L 539.046875 445.941406 L 443 445.941406 Z M 443 307 " clip-rule="nonzero"></path></clipPath><clipPath id="4cee2a85e4"><path d="M 384.546875 278 L 481 278 L 481 417 L 384.546875 417 Z M 384.546875 278 " clip-rule="nonzero"></path></clipPath><clipPath id="60025ff96f"><rect x="0" width="411" y="0" height="87"></rect></clipPath><clipPath id="6f24e0a3f8"><rect x="0" width="230" y="0" height="87"></rect></clipPath></defs><g clip-path="url(#776dcdd2f4)"><path fill="#545454" d="M 539.101562 445.601562 C 534.65625 438.515625 530.203125 431.429688 525.75 424.339844 L 519.0625 413.734375 L 512.351562 403.128906 L 498.910156 381.925781 L 486.300781 362.066406 L 502.535156 338.222656 L 506.8125 331.957031 C 508.242188 329.871094 509.660156 327.777344 511.101562 325.695312 L 519.738281 313.21875 L 523.230469 308.171875 L 477.175781 307.863281 L 476.203125 309.597656 C 474.785156 312.140625 473.398438 314.695312 471.996094 317.246094 L 470.949219 319.164062 L 469.917969 321.085938 L 467.839844 324.925781 L 463.734375 332.632812 L 461.644531 336.609375 C 460.84375 335.394531 460.046875 334.1875 459.246094 332.980469 L 456.800781 329.316406 L 454.328125 325.664062 L 451.855469 322.023438 L 449.347656 318.398438 C 447.667969 315.980469 445.964844 313.582031 444.234375 311.199219 C 444.183594 311.113281 444.113281 311.058594 444.015625 311.035156 C 443.921875 311.007812 443.832031 311.023438 443.746094 311.070312 C 443.660156 311.121094 443.605469 311.195312 443.578125 311.289062 C 443.554688 311.386719 443.566406 311.476562 443.617188 311.5625 C 444.871094 314.21875 446.160156 316.863281 447.488281 319.488281 L 449.46875 323.425781 L 451.476562 327.351562 L 453.5 331.265625 L 455.542969 335.167969 C 456.921875 337.761719 458.292969 340.355469 459.6875 342.941406 L 461.699219 346.667969 L 464.09375 342.910156 C 465.65625 340.453125 467.183594 337.984375 468.730469 335.515625 L 473.324219 328.097656 L 475.601562 324.375 L 476.738281 322.519531 L 477.867188 320.664062 C 479.007812 318.777344 480.152344 316.890625 481.28125 315 C 482.183594 315 509.71875 314.894531 510.8125 314.871094 L 506.082031 322.386719 C 504.738281 324.527344 503.367188 326.652344 502.011719 328.789062 L 497.925781 335.179688 L 481.5625 360.738281 L 480.707031 362.066406 L 481.5625 363.304688 L 495.75 384.011719 L 509.96875 404.703125 L 517.078125 415.039062 L 524.210938 425.367188 C 528.960938 432.261719 533.730469 439.140625 538.515625 446.003906 C 538.570312 446.082031 538.644531 446.132812 538.738281 446.148438 C 538.832031 446.167969 538.921875 446.152344 539 446.097656 C 539.082031 446.042969 539.132812 445.972656 539.152344 445.875 C 539.171875 445.78125 539.15625 445.695312 539.101562 445.613281 Z M 539.101562 445.601562 " fill-opacity="1" fill-rule="nonzero"></path></g><g clip-path="url(#4cee2a85e4)"><path fill="#545454" d="M 476.277344 404.554688 L 474.292969 400.613281 L 472.289062 396.691406 L 470.261719 392.78125 L 468.21875 388.878906 C 466.84375 386.28125 465.472656 383.6875 464.074219 381.105469 L 462.0625 377.375 L 459.667969 381.136719 C 458.105469 383.589844 456.578125 386.0625 455.03125 388.53125 L 450.433594 395.949219 L 448.160156 399.671875 L 447.019531 401.527344 L 445.894531 403.382812 C 444.753906 405.269531 443.621094 407.160156 442.496094 409.046875 C 441.59375 409.046875 414.058594 409.15625 412.960938 409.175781 L 417.679688 401.664062 C 419.027344 399.519531 420.398438 397.394531 421.753906 395.261719 L 425.839844 388.867188 L 442.203125 363.308594 L 443.054688 361.976562 L 442.203125 360.742188 L 428.015625 340.074219 L 413.796875 319.429688 L 406.6875 309.113281 L 399.546875 298.808594 C 394.800781 291.933594 390.035156 285.070312 385.246094 278.222656 C 385.195312 278.144531 385.121094 278.097656 385.027344 278.078125 C 384.9375 278.058594 384.851562 278.074219 384.769531 278.125 C 384.6875 278.175781 384.636719 278.25 384.617188 278.34375 C 384.59375 278.4375 384.609375 278.527344 384.660156 278.609375 C 389.109375 285.683594 393.5625 292.757812 398.011719 299.824219 L 404.699219 310.425781 L 411.410156 321.007812 L 424.847656 342.167969 L 437.460938 361.980469 L 421.234375 385.824219 L 416.960938 392.09375 C 415.527344 394.175781 414.113281 396.273438 412.667969 398.351562 L 404.035156 410.832031 L 400.542969 415.875 L 446.597656 416.183594 L 447.574219 414.433594 C 448.992188 411.894531 450.382812 409.335938 451.78125 406.789062 L 452.828125 404.871094 L 453.867188 402.953125 L 455.941406 399.113281 L 460.027344 391.417969 L 462.117188 387.445312 L 464.515625 391.066406 L 466.960938 394.730469 L 469.433594 398.382812 L 471.90625 402.023438 L 474.414062 405.648438 C 476.09375 408.066406 477.796875 410.464844 479.527344 412.847656 C 479.582031 412.917969 479.652344 412.964844 479.742188 412.980469 C 479.828125 413 479.914062 412.984375 479.992188 412.941406 C 480.070312 412.894531 480.121094 412.828125 480.148438 412.742188 C 480.175781 412.652344 480.167969 412.570312 480.128906 412.488281 C 478.886719 409.835938 477.601562 407.191406 476.277344 404.554688 Z M 476.277344 404.554688 " fill-opacity="1" fill-rule="nonzero"></path></g><g transform="matrix(1, 0, 0, 1, 21, 317)"><g clip-path="url(#60025ff96f)"><g fill="#ffffff" fill-opacity="1"><g transform="translate(2.48852, 65.576707)"><g><path d="M 14.53125 1.078125 C 11.644531 1.078125 9.160156 0.316406 7.078125 -1.203125 C 5.003906 -2.722656 3.144531 -5.003906 1.5 -8.046875 L 5.15625 -10.265625 C 6.4375 -7.898438 7.835938 -6.117188 9.359375 -4.921875 C 10.878906 -3.722656 12.484375 -3.125 14.171875 -3.125 C 15.648438 -3.125 17 -3.453125 18.21875 -4.109375 C 19.4375 -4.773438 20.394531 -5.664062 21.09375 -6.78125 C 21.800781 -7.90625 22.15625 -9.128906 22.15625 -10.453125 C 22.15625 -11.765625 21.785156 -12.988281 21.046875 -14.125 C 20.304688 -15.269531 19.234375 -16.453125 17.828125 -17.671875 C 16.429688 -18.898438 13.988281 -20.914062 10.5 -23.71875 C 8.945312 -24.957031 7.738281 -26.054688 6.875 -27.015625 C 6.007812 -27.972656 5.359375 -29 4.921875 -30.09375 C 4.484375 -31.195312 4.265625 -32.53125 4.265625 -34.09375 C 4.265625 -36.019531 4.722656 -37.753906 5.640625 -39.296875 C 6.566406 -40.835938 7.828125 -42.035156 9.421875 -42.890625 C 11.023438 -43.753906 12.785156 -44.1875 14.703125 -44.1875 C 17.109375 -44.1875 19.179688 -43.570312 20.921875 -42.34375 C 22.660156 -41.125 24.351562 -39.394531 26 -37.15625 L 22.515625 -34.453125 C 21.585938 -35.660156 20.765625 -36.625 20.046875 -37.34375 C 19.328125 -38.0625 18.515625 -38.640625 17.609375 -39.078125 C 16.710938 -39.515625 15.707031 -39.734375 14.59375 -39.734375 C 13.382812 -39.734375 12.335938 -39.484375 11.453125 -38.984375 C 10.578125 -38.484375 9.910156 -37.8125 9.453125 -36.96875 C 8.992188 -36.132812 8.765625 -35.238281 8.765625 -34.28125 C 8.765625 -32.914062 9.164062 -31.640625 9.96875 -30.453125 C 10.769531 -29.273438 11.929688 -28.128906 13.453125 -27.015625 C 16.648438 -24.691406 19.117188 -22.769531 20.859375 -21.25 C 22.597656 -19.726562 24 -18.085938 25.0625 -16.328125 C 26.125 -14.566406 26.65625 -12.625 26.65625 -10.5 C 26.65625 -8.5 26.125 -6.609375 25.0625 -4.828125 C 24 -3.046875 22.546875 -1.613281 20.703125 -0.53125 C 18.867188 0.539062 16.8125 1.078125 14.53125 1.078125 Z M 14.53125 1.078125 "></path></g></g></g><g fill="#ffffff" fill-opacity="1"><g transform="translate(79.759695, 65.576707)"><g><path d="M 26.109375 1.078125 C 21.785156 1.078125 17.894531 0.0546875 14.4375 -1.984375 C 10.976562 -4.023438 8.265625 -6.765625 6.296875 -10.203125 C 4.335938 -13.648438 3.359375 -17.375 3.359375 -21.375 C 3.359375 -25.570312 4.359375 -29.410156 6.359375 -32.890625 C 8.359375 -36.378906 11.066406 -39.132812 14.484375 -41.15625 C 17.910156 -43.175781 21.664062 -44.1875 25.75 -44.1875 C 30.03125 -44.1875 33.929688 -43.191406 37.453125 -41.203125 C 40.984375 -39.222656 43.757812 -36.503906 45.78125 -33.046875 C 47.800781 -29.585938 48.8125 -25.753906 48.8125 -21.546875 C 48.8125 -17.390625 47.804688 -13.578125 45.796875 -10.109375 C 43.796875 -6.648438 41.066406 -3.921875 37.609375 -1.921875 C 34.148438 0.078125 30.316406 1.078125 26.109375 1.078125 Z M 26 -3.125 C 29.3125 -3.125 32.367188 -3.910156 35.171875 -5.484375 C 37.972656 -7.066406 40.191406 -9.269531 41.828125 -12.09375 C 43.472656 -14.914062 44.296875 -18.085938 44.296875 -21.609375 C 44.296875 -25.128906 43.445312 -28.289062 41.75 -31.09375 C 40.050781 -33.894531 37.800781 -36.078125 35 -37.640625 C 32.195312 -39.203125 29.195312 -39.984375 26 -39.984375 C 22.832031 -39.984375 19.859375 -39.191406 17.078125 -37.609375 C 14.296875 -36.023438 12.0625 -33.8125 10.375 -30.96875 C 8.695312 -28.132812 7.859375 -24.9375 7.859375 -21.375 C 7.859375 -17.925781 8.6875 -14.8125 10.34375 -12.03125 C 12.007812 -9.25 14.222656 -7.066406 16.984375 -5.484375 C 19.742188 -3.910156 22.75 -3.125 26 -3.125 Z M 26 -3.125 "></path></g></g></g><g fill="#ffffff" fill-opacity="1"><g transform="translate(179.955781, 65.576707)"><g><path d="M 9.546875 -43.109375 L 9.546875 -4.203125 L 26.109375 -4.203125 L 26.109375 0 L 5.21875 0 L 5.21875 -43.109375 Z M 9.546875 -43.109375 "></path></g></g></g><g fill="#ffffff" fill-opacity="1"><g transform="translate(255.72663, 65.576707)"><g><path d="M 1.984375 -43.109375 L 6.65625 -43.109375 L 20.953125 -9.78125 L 35.484375 -43.109375 L 40.15625 -43.109375 L 21.4375 0 L 20.46875 0 Z M 1.984375 -43.109375 "></path></g></g></g><g fill="#ffffff" fill-opacity="1"><g transform="translate(345.900578, 65.576707)"><g><path d="M 5.21875 -43.109375 L 9.546875 -43.109375 L 9.546875 0 L 5.21875 0 Z M 5.21875 -43.109375 "></path></g></g></g></g></g><g transform="matrix(1, 0, 0, 1, 538, 317)"><g clip-path="url(#6f24e0a3f8)"><g fill="#545454" fill-opacity="1"><g transform="translate(3.585742, 65.576707)"><g><path d="M 9.546875 -43.109375 L 9.546875 -4.203125 L 26.109375 -4.203125 L 26.109375 0 L 5.21875 0 L 5.21875 -43.109375 Z M 9.546875 -43.109375 "></path></g></g></g><g fill="#545454" fill-opacity="1"><g transform="translate(79.356591, 65.576707)"><g><path d="M 51.859375 0 L 47.671875 0 L 43.703125 -29.296875 L 43.46875 -30.859375 L 42.75 -29.359375 L 28.21875 0 L 27.140625 0 L 12.421875 -29.421875 L 11.640625 -31.03125 L 11.40625 -29.234375 L 7.5 0 L 3.296875 0 L 9.421875 -43.109375 L 10.140625 -43.109375 L 27.015625 -9.125 L 27.671875 -7.75 L 28.390625 -9.1875 L 45.015625 -43.109375 L 45.75 -43.109375 Z M 51.859375 0 "></path></g></g></g><g fill="#545454" fill-opacity="1"><g transform="translate(182.553335, 65.576707)"><g><path d="M 14.53125 1.078125 C 11.644531 1.078125 9.160156 0.316406 7.078125 -1.203125 C 5.003906 -2.722656 3.144531 -5.003906 1.5 -8.046875 L 5.15625 -10.265625 C 6.4375 -7.898438 7.835938 -6.117188 9.359375 -4.921875 C 10.878906 -3.722656 12.484375 -3.125 14.171875 -3.125 C 15.648438 -3.125 17 -3.453125 18.21875 -4.109375 C 19.4375 -4.773438 20.394531 -5.664062 21.09375 -6.78125 C 21.800781 -7.90625 22.15625 -9.128906 22.15625 -10.453125 C 22.15625 -11.765625 21.785156 -12.988281 21.046875 -14.125 C 20.304688 -15.269531 19.234375 -16.453125 17.828125 -17.671875 C 16.429688 -18.898438 13.988281 -20.914062 10.5 -23.71875 C 8.945312 -24.957031 7.738281 -26.054688 6.875 -27.015625 C 6.007812 -27.972656 5.359375 -29 4.921875 -30.09375 C 4.484375 -31.195312 4.265625 -32.53125 4.265625 -34.09375 C 4.265625 -36.019531 4.722656 -37.753906 5.640625 -39.296875 C 6.566406 -40.835938 7.828125 -42.035156 9.421875 -42.890625 C 11.023438 -43.753906 12.785156 -44.1875 14.703125 -44.1875 C 17.109375 -44.1875 19.179688 -43.570312 20.921875 -42.34375 C 22.660156 -41.125 24.351562 -39.394531 26 -37.15625 L 22.515625 -34.453125 C 21.585938 -35.660156 20.765625 -36.625 20.046875 -37.34375 C 19.328125 -38.0625 18.515625 -38.640625 17.609375 -39.078125 C 16.710938 -39.515625 15.707031 -39.734375 14.59375 -39.734375 C 13.382812 -39.734375 12.335938 -39.484375 11.453125 -38.984375 C 10.578125 -38.484375 9.910156 -37.8125 9.453125 -36.96875 C 8.992188 -36.132812 8.765625 -35.238281 8.765625 -34.28125 C 8.765625 -32.914062 9.164062 -31.640625 9.96875 -30.453125 C 10.769531 -29.273438 11.929688 -28.128906 13.453125 -27.015625 C 16.648438 -24.691406 19.117188 -22.769531 20.859375 -21.25 C 22.597656 -19.726562 24 -18.085938 25.0625 -16.328125 C 26.125 -14.566406 26.65625 -12.625 26.65625 -10.5 C 26.65625 -8.5 26.125 -6.609375 25.0625 -4.828125 C 24 -3.046875 22.546875 -1.613281 20.703125 -0.53125 C 18.867188 0.539062 16.8125 1.078125 14.53125 1.078125 Z M 14.53125 1.078125 "></path></g></g></g></g></g></svg>